<svg xmlns="http://www.w3.org/2000/svg" viewBox="0 0 750 500"><g id="freepik--Tubes--inject-130"><path d="M175.73,140v58.4a8.41,8.41,0,0,0,16.82,0V140Z" style="fill:#fff"></path><path d="M184.14,207.3a8.92,8.92,0,0,1-8.91-8.91V140a.5.5,0,0,1,.5-.5h16.82a.5.5,0,0,1,.5.5v58.4A8.92,8.92,0,0,1,184.14,207.3Zm-7.91-66.81v57.9a7.91,7.91,0,0,0,15.82,0v-57.9Z" style="fill:#263238"></path><path d="M184.14,203.8a5.41,5.41,0,0,1-5.41-5.41V157.7h10.82v40.69A5.42,5.42,0,0,1,184.14,203.8Z" style="fill:#92E3A9"></path><path d="M184.14,204.3a5.92,5.92,0,0,1-5.91-5.91V157.71a.5.5,0,0,1,.5-.5h10.82a.5.5,0,0,1,.5.5v40.68A5.92,5.92,0,0,1,184.14,204.3Zm-4.91-46.09v40.18a4.91,4.91,0,0,0,9.82,0V158.21Z" style="fill:#263238"></path><rect x="172.18" y="136.24" width="23.91" height="3.75" style="fill:#fff"></rect><path d="M196.09,140.49H172.18a.5.5,0,0,1-.5-.5v-3.75a.5.5,0,0,1,.5-.5h23.91a.5.5,0,0,1,.5.5V140A.5.5,0,0,1,196.09,140.49Zm-23.41-1h22.91v-2.75H172.68Z" style="fill:#263238"></path><path d="M206,140v58.4a8.41,8.41,0,0,0,16.82,0V140Z" style="fill:#fff"></path><path d="M214.43,207.3a8.92,8.92,0,0,1-8.91-8.91V140a.5.5,0,0,1,.5-.5h16.82a.5.5,0,0,1,.5.5v58.4A8.92,8.92,0,0,1,214.43,207.3Zm-7.91-66.81v57.9a7.91,7.91,0,0,0,15.82,0v-57.9Z" style="fill:#263238"></path><path d="M214.43,203.8a5.42,5.42,0,0,1-5.41-5.41V178.48h10.83v19.91A5.42,5.42,0,0,1,214.43,203.8Z" style="fill:#92E3A9"></path><path d="M214.43,204.3a5.92,5.92,0,0,1-5.91-5.91V178.48a.5.5,0,0,1,.5-.5h10.82a.5.5,0,0,1,.5.5v19.91A5.92,5.92,0,0,1,214.43,204.3ZM209.52,179v19.41a4.91,4.91,0,0,0,9.82,0V179Z" style="fill:#263238"></path><rect x="202.48" y="136.24" width="23.91" height="3.75" style="fill:#fff"></rect><path d="M226.39,140.49H202.48a.5.5,0,0,1-.5-.5v-3.75a.5.5,0,0,1,.5-.5h23.91a.5.5,0,0,1,.5.5V140A.5.5,0,0,1,226.39,140.49Zm-23.41-1h22.91v-2.75H203Z" style="fill:#263238"></path></g></svg>