<svg xmlns="http://www.w3.org/2000/svg" viewBox="0 0 750 500"><g id="freepik--background-simple--inject-130"><path d="M687.38,93.33c-12.07,1.25-26.77,5.09-33.32,6q-51.67,6.87-103.57,11.93c-56.25,5.46-112.78,9.52-169.31,9.52-84.13,0-167-17.19-250.2-26.92-19.79-2.31-79.4-15.3-88.92,11-12.35,34.13-11.15,75.42-12,111.31-.92,38.29-1.79,76.54-1.63,114.8.06,13.1,1.49,26.59,7.65,38.15,7.7,14.48,21.7,20.89,37.25,23.18,28.14,4.13,56.68,3.5,85,3.11,38.32-.54,76.6-2.74,114.84-5.13,66.19-4.13,133.44-11.92,199.82-8.76,46.6,2.22,92.53,10.52,138.35,18.84,18.55,3.37,36.79,8.39,55.57,10.48,15.22,1.69,38.45,3.48,50.75-7.87C728,393.4,728.07,370.68,729.2,358c2.44-27.32,2.36-54.9,1.73-82.29-1.18-51.34-2.78-104.75-13.07-155.24C714.37,103.35,706.29,91.36,687.38,93.33Z" style="fill:#92E3A9"></path><path d="M687.38,93.33c-12.07,1.25-26.77,5.09-33.32,6q-51.67,6.87-103.57,11.93c-56.25,5.46-112.78,9.52-169.31,9.52-84.13,0-167-17.19-250.2-26.92-19.79-2.31-79.4-15.3-88.92,11-12.35,34.13-11.15,75.42-12,111.31-.92,38.29-1.79,76.54-1.63,114.8.06,13.1,1.49,26.59,7.65,38.15,7.7,14.48,21.7,20.89,37.25,23.18,28.14,4.13,56.68,3.5,85,3.11,38.32-.54,76.6-2.74,114.84-5.13,66.19-4.13,133.44-11.92,199.82-8.76,46.6,2.22,92.53,10.52,138.35,18.84,18.55,3.37,36.79,8.39,55.57,10.48,15.22,1.69,38.45,3.48,50.75-7.87C728,393.4,728.07,370.68,729.2,358c2.44-27.32,2.36-54.9,1.73-82.29-1.18-51.34-2.78-104.75-13.07-155.24C714.37,103.35,706.29,91.36,687.38,93.33Z" style="fill:#fff;opacity:0.7000000000000001"></path></g></svg>