<svg xmlns="http://www.w3.org/2000/svg" viewBox="0 0 750 500"><g id="freepik--Microscope--inject-130"><rect x="524.68" y="386.06" width="15.06" height="13.09" style="fill:#fff"></rect><path d="M539.74,399.65H524.68a.5.5,0,0,1-.5-.5V386.06a.5.5,0,0,1,.5-.5h15.06a.5.5,0,0,1,.5.5v13.09A.5.5,0,0,1,539.74,399.65Zm-14.56-1h14.06V386.56H525.18Z" style="fill:#263238"></path><path d="M538.36,299.63v15.46a41,41,0,0,1,17.11,4.28A26.47,26.47,0,0,1,569.58,343v31.84a17.78,17.78,0,0,1-17.77,17.78H524.42v7.65h49.74a7.66,7.66,0,0,0,7.66-7.65h0V328.48a26.63,26.63,0,0,0-8.55-19.62C555.57,292.63,538.36,299.63,538.36,299.63Z" style="fill:#92E3A9"></path><path d="M574.16,400.72H524.42a.5.5,0,0,1-.5-.5v-7.65a.5.5,0,0,1,.5-.5h27.39a17.3,17.3,0,0,0,17.27-17.28V343a25.84,25.84,0,0,0-13.83-23.14,41,41,0,0,0-16.92-4.22.49.49,0,0,1-.47-.5V299.63a.49.49,0,0,1,.31-.46c.17-.08,17.71-6.94,35.44,9.32a27.19,27.19,0,0,1,8.71,20v64.09A8.17,8.17,0,0,1,574.16,400.72Zm-49.24-1h49.24a7.16,7.16,0,0,0,7.16-7.15V328.48a26.16,26.16,0,0,0-8.39-19.25c-16-14.64-31.68-10.07-34.07-9.25v14.64a41.66,41.66,0,0,1,16.84,4.3,26.85,26.85,0,0,1,14.38,24v31.84a18.3,18.3,0,0,1-18.27,18.28H524.92Z" style="fill:#263238"></path><rect x="526.07" y="258.88" width="12.29" height="56.21" style="fill:#fff"></rect><path d="M538.35,315.59H526.07a.5.5,0,0,1-.5-.5V258.88a.5.5,0,0,1,.5-.5h12.28a.5.5,0,0,1,.5.5v56.21A.5.5,0,0,1,538.35,315.59Zm-11.78-1h11.28V259.38H526.57Z" style="fill:#263238"></path><rect x="524.68" y="274.54" width="15.06" height="56.21" style="fill:#fff"></rect><path d="M539.74,331.25H524.68a.5.5,0,0,1-.5-.5V274.54a.5.5,0,0,1,.5-.5h15.06a.5.5,0,0,1,.5.5v56.21A.5.5,0,0,1,539.74,331.25Zm-14.56-1h14.06V275H525.18Z" style="fill:#263238"></path><rect x="524.68" y="257.21" width="15.06" height="4.57" style="fill:#263238"></rect><path d="M539.74,262.28H524.68a.5.5,0,0,1-.5-.5v-4.57a.5.5,0,0,1,.5-.5h15.06a.5.5,0,0,1,.5.5v4.57A.5.5,0,0,1,539.74,262.28Zm-14.56-1h14.06v-3.57H525.18Z" style="fill:#263238"></path><rect x="516.34" y="384.56" width="31.75" height="2.81" style="fill:#263238"></rect><path d="M548.09,387.87H516.34a.5.5,0,0,1-.5-.5v-2.81a.5.5,0,0,1,.5-.5h31.75a.51.51,0,0,1,.5.5v2.81A.5.5,0,0,1,548.09,387.87Zm-31.25-1h30.75v-1.81H516.84Z" style="fill:#263238"></path><rect x="522.58" y="286.94" width="19.26" height="64.7" style="fill:#fff"></rect><path d="M541.84,352.13H522.58a.5.5,0,0,1-.5-.5V286.94a.5.5,0,0,1,.5-.5h19.26a.5.5,0,0,1,.5.5v64.69A.5.5,0,0,1,541.84,352.13Zm-18.76-1h18.26V287.44H523.08Z" style="fill:#263238"></path><rect x="522.58" y="290.2" width="19.26" height="64.7" style="fill:#263238"></rect><path d="M541.84,355.4H522.58a.51.51,0,0,1-.5-.5V290.2a.5.5,0,0,1,.5-.5h19.26a.5.5,0,0,1,.5.5v64.7A.5.5,0,0,1,541.84,355.4Zm-18.76-1h18.26V290.7H523.08Z" style="fill:#263238"></path><polygon points="539.91 363.37 524.51 363.37 522.58 355.21 541.84 355.21 539.91 363.37" style="fill:#fff"></polygon><path d="M539.91,363.87h-15.4a.51.51,0,0,1-.49-.39l-1.92-8.15a.5.5,0,0,1,.48-.62h19.26a.49.49,0,0,1,.39.19.51.51,0,0,1,.1.43l-1.93,8.15A.5.5,0,0,1,539.91,363.87Zm-15-1h14.62l1.69-7.16h-18Z" style="fill:#263238"></path><rect x="528.21" y="363.24" width="8.01" height="11.15" style="fill:#fff"></rect><path d="M536.22,374.89h-8a.5.5,0,0,1-.5-.5V363.24a.5.5,0,0,1,.5-.5h8a.51.51,0,0,1,.5.5v11.15A.5.5,0,0,1,536.22,374.89Zm-7.51-1h7V363.74h-7Z" style="fill:#263238"></path><circle cx="542.22" cy="304.76" r="11.52" transform="translate(-28.81 551.36) rotate(-52.7)" style="fill:#fff"></circle><path d="M542.22,316.78a12,12,0,1,1,12-12A12,12,0,0,1,542.22,316.78Zm0-23a11,11,0,1,0,11,11A11,11,0,0,0,542.22,293.74Z" style="fill:#263238"></path><circle cx="542.22" cy="304.76" r="9.25" transform="translate(-56.69 472.67) rotate(-45)" style="fill:#fff"></circle><path d="M542.22,314.51a9.75,9.75,0,1,1,9.75-9.75A9.76,9.76,0,0,1,542.22,314.51Zm0-18.5a8.75,8.75,0,1,0,8.75,8.75A8.76,8.76,0,0,0,542.22,296Z" style="fill:#263238"></path><path d="M555.78,395l-.09,0a7.1,7.1,0,0,0-13.23,3.59l.3,15.15h22.66Z" style="fill:#263238"></path><path d="M565.42,414.23H542.76a.51.51,0,0,1-.5-.49l-.3-15.15a7.6,7.6,0,0,1,14-4,.48.48,0,0,1,.23.19l9.63,18.77a.48.48,0,0,1,0,.49A.49.49,0,0,1,565.42,414.23Zm-22.17-1H564.6l-9.14-17.8a.46.46,0,0,1-.2-.19,6.6,6.6,0,0,0-12.3,3.34Z" style="fill:#263238"></path><path d="M554.16,398.58a4.6,4.6,0,1,0-4.6,4.6A4.6,4.6,0,0,0,554.16,398.58Z" style="fill:#fff"></path><path d="M549.56,403.68a5.1,5.1,0,1,1,5.1-5.1A5.11,5.11,0,0,1,549.56,403.68Zm0-9.2a4.1,4.1,0,1,0,4.1,4.1A4.11,4.11,0,0,0,549.56,394.48Z" style="fill:#263238"></path><path d="M604.88,422.33H501.47l2-3.08a10.77,10.77,0,0,1,9.07-4.95h81.3a10.79,10.79,0,0,1,9.07,4.95Z" style="fill:#263238"></path><path d="M604.88,422.83H501.47a.51.51,0,0,1-.44-.26.52.52,0,0,1,0-.51l2-3.08a11.23,11.23,0,0,1,9.49-5.18h81.3a11.26,11.26,0,0,1,9.49,5.18l2,3.08a.5.5,0,0,1-.42.77Zm-102.49-1H604l-1.49-2.31a10.25,10.25,0,0,0-8.65-4.72h-81.3a10.22,10.22,0,0,0-8.65,4.72Z" style="fill:#263238"></path></g></svg>