<svg xmlns="http://www.w3.org/2000/svg" viewBox="0 0 750 500"><g id="freepik--Chromosome--inject-130"><path d="M210.54,286.4c5-2.87,10-6.92,12-11.13,3.09-6.7,2.59-31.15,2.36-38.49a5.2,5.2,0,0,0-10.4.33c.43,13.88,0,30.78-1.4,33.8-.52,1.14-2.55,3.33-6.54,5.77a32.5,32.5,0,0,1-7.05,3.36,32.72,32.72,0,0,1-7-3.36c-4-2.44-6-4.63-6.54-5.77-1.38-3-1.84-19.92-1.4-33.8a5.2,5.2,0,0,0-10.4-.33c-.23,7.34-.73,31.79,2.36,38.49,1.94,4.21,7,8.26,12,11.13-5.33,4.57-10.51,11.09-12.24,17-3,10-2.19,53.19-2.09,58.07a5.2,5.2,0,0,0,5.2,5.1h.1a5.2,5.2,0,0,0,5.1-5.3c-.36-17.85-.22-48.54,1.66-54.93s10-13.25,13.32-15.07c3.37,1.82,11.45,8.73,13.32,15.07s2,37.08,1.67,54.93a5.19,5.19,0,0,0,5.09,5.3h.11a5.21,5.21,0,0,0,5.2-5.1c.1-4.88.87-48.05-2.09-58.07C221.05,297.49,215.87,291,210.54,286.4Z" style="fill:#fff"></path><path d="M219.67,367h-.12a5.7,5.7,0,0,1-5.58-5.81c.36-17.82.22-48.44-1.65-54.77s-9.7-12.83-12.84-14.64c-3.13,1.81-11,8.37-12.84,14.64s-2,36.95-1.64,54.77a5.7,5.7,0,0,1-5.59,5.81h-.11a5.73,5.73,0,0,1-5.7-5.59c-.1-4.89-.87-48.13,2.11-58.22,1.84-6.25,7.24-12.64,11.87-16.73-5.69-3.35-9.89-7.34-11.58-11-3.14-6.8-2.63-31.35-2.4-38.71a5.7,5.7,0,0,1,11.4.35c-.43,13.54,0,30.67,1.35,33.59.4.86,2.19,3,6.35,5.54a33,33,0,0,0,6.78,3.27,32.81,32.81,0,0,0,6.79-3.27c4.16-2.54,5.95-4.68,6.35-5.55,1.32-2.91,1.77-20,1.35-33.58a5.7,5.7,0,0,1,5.52-5.87,5.7,5.7,0,0,1,5.88,5.52c.23,7.36.73,31.91-2.4,38.71-1.69,3.66-5.89,7.65-11.58,11,4.63,4.09,10,10.48,11.87,16.73,3,10.09,2.2,53.33,2.11,58.22A5.73,5.73,0,0,1,219.67,367ZM179.3,232.25a4.71,4.71,0,0,0-4.7,4.55c-.23,7.31-.74,31.66,2.31,38.26,1.66,3.61,6,7.58,11.77,10.91a.5.5,0,0,1,.08.81c-4.63,4-10.24,10.44-12.09,16.71-2.94,9.95-2.17,53-2.07,57.92a4.7,4.7,0,1,0,9.4-.18c-.36-17.88-.22-48.64,1.68-55.08,1.86-6.27,9.82-13.34,13.57-15.37a.49.49,0,0,1,.47,0c3.75,2,11.71,9.1,13.56,15.37,1.9,6.44,2.05,37.2,1.69,55.08a4.7,4.7,0,0,0,4.6,4.79h0a4.75,4.75,0,0,0,4.79-4.61c.09-4.88.87-48-2.07-57.92-1.85-6.27-7.46-12.74-12.09-16.71a.48.48,0,0,1-.17-.42.51.51,0,0,1,.25-.39c5.81-3.33,10.1-7.3,11.77-10.91,3-6.6,2.53-30.95,2.31-38.26a4.7,4.7,0,0,0-9.4.29c.43,13.88,0,30.84-1.44,34-.59,1.26-2.66,3.49-6.74,6a33.31,33.31,0,0,1-7.17,3.41.42.42,0,0,1-.27,0,33.32,33.32,0,0,1-7.18-3.41c-4.07-2.5-6.15-4.73-6.73-6-1.45-3.19-1.88-20.15-1.44-34a4.7,4.7,0,0,0-4.55-4.84Z" style="fill:#263238"></path><path d="M184.34,345.38h-10.4c0,1.3,0,2.56,0,3.76h10.4C184.35,347.9,184.34,346.65,184.34,345.38Z" style="fill:#92E3A9"></path><path d="M184.35,349.64H174a.51.51,0,0,1-.5-.5c0-1.2,0-2.46,0-3.76a.51.51,0,0,1,.5-.5h10.4a.5.5,0,0,1,.5.5c0,1.27,0,2.52,0,3.75a.51.51,0,0,1-.14.36A.53.53,0,0,1,184.35,349.64Zm-9.9-1h9.4c0-.91,0-1.83,0-2.76h-9.4C174.44,346.83,174.45,347.75,174.45,348.64Z" style="fill:#263238"></path><path d="M184.37,242.58H174c-.06,3.51-.08,7.82,0,12.2h10.42C184.33,250.91,184.32,246.71,184.37,242.58Z" style="fill:#92E3A9"></path><path d="M184.42,255.28H174a.48.48,0,0,1-.5-.48c-.09-3.74-.1-7.85,0-12.23a.49.49,0,0,1,.5-.49h10.4a.48.48,0,0,1,.36.15.47.47,0,0,1,.14.36c-.05,4.14,0,8.35,0,12.18a.51.51,0,0,1-.14.36A.48.48,0,0,1,184.42,255.28Zm-9.94-1h9.43c-.08-3.54-.09-7.4,0-11.2h-9.41C174.4,247.07,174.41,250.83,174.48,254.28Z" style="fill:#263238"></path><path d="M174.93,311.58c-.12,1.33-.23,2.74-.32,4.23H185c.1-1.54.21-3,.33-4.23Z" style="fill:#92E3A9"></path><path d="M185,316.31h-10.4a.51.51,0,0,1-.5-.53c.1-1.49.2-2.91.32-4.24a.5.5,0,0,1,.5-.46h10.41a.5.5,0,0,1,.37.17.52.52,0,0,1,.13.38c-.12,1.22-.23,2.64-.33,4.21A.5.5,0,0,1,185,316.31Zm-9.87-1h9.4c.08-1.17.16-2.25.25-3.23h-9.4C175.3,313.11,175.22,314.19,175.14,315.31Z" style="fill:#263238"></path><path d="M214.63,248.68H225c0-1.64,0-3.22,0-4.69H214.61C214.63,245.56,214.63,247.13,214.63,248.68Z" style="fill:#92E3A9"></path><path d="M225,249.18H214.63a.52.52,0,0,1-.36-.14.54.54,0,0,1-.14-.36c0-1.55,0-3.12,0-4.69a.51.51,0,0,1,.5-.5H225a.5.5,0,0,1,.5.49c0,1.47,0,3.05,0,4.7A.5.5,0,0,1,225,249.18Zm-9.91-1h9.41c0-1.28,0-2.52,0-3.69h-9.4C215.13,245.72,215.13,247,215.13,248.18Z" style="fill:#263238"></path><path d="M174.15,326.6h10.41c0-.63,0-1.25.05-1.87h-10.4Z" style="fill:#92E3A9"></path><path d="M184.56,327.1H174.15a.5.5,0,0,1-.5-.51l.06-1.88a.5.5,0,0,1,.5-.48h10.4a.48.48,0,0,1,.36.15.46.46,0,0,1,.14.36l-.05,1.88A.5.5,0,0,1,184.56,327.1Zm-9.89-1h9.4l0-.87h-9.41Z" style="fill:#263238"></path><path d="M212.91,271.21h10.75c.09-.45.17-.91.24-1.4H213.41a6.36,6.36,0,0,1-.34,1.1A2.19,2.19,0,0,1,212.91,271.21Z" style="fill:#92E3A9"></path><path d="M223.66,271.71H212.91a.49.49,0,0,1-.43-.75l.14-.26a5.52,5.52,0,0,0,.3-1,.5.5,0,0,1,.49-.38H223.9a.49.49,0,0,1,.38.17.49.49,0,0,1,.12.4c-.08.5-.16,1-.25,1.43A.49.49,0,0,1,223.66,271.71Zm-10-1h9.57c0-.13,0-.27.07-.4H213.8C213.76,270.45,213.72,270.59,213.68,270.71Z" style="fill:#263238"></path><path d="M224.91,330.83H214.5c.06,2.76.09,5.6.11,8.45H225C225,336.52,225,333.67,224.91,330.83Z" style="fill:#92E3A9"></path><path d="M225,339.78H214.61a.5.5,0,0,1-.5-.5c0-2.84-.05-5.68-.11-8.44a.48.48,0,0,1,.15-.36.47.47,0,0,1,.35-.15h10.41a.49.49,0,0,1,.5.49c.06,2.84.09,5.69.11,8.46a.51.51,0,0,1-.15.35A.47.47,0,0,1,225,339.78Zm-9.92-1h9.41c0-2.44,0-4.95-.09-7.45H215C215.06,333.77,215.09,336.27,215.1,338.78Z" style="fill:#263238"></path><path d="M225,354.3h-10.4c0,1.12,0,2.22,0,3.29h10.4C225,356.62,225,355.52,225,354.3Z" style="fill:#92E3A9"></path><path d="M224.93,358.09h-10.4a.51.51,0,0,1-.5-.51c0-1.07,0-2.16,0-3.29a.51.51,0,0,1,.5-.49H225a.49.49,0,0,1,.36.15.51.51,0,0,1,.14.36c0,1.22,0,2.32,0,3.28A.5.5,0,0,1,224.93,358.09Zm-9.89-1h9.4c0-.7,0-1.47,0-2.29h-9.4C215.06,355.58,215.05,356.34,215,357.09Z" style="fill:#263238"></path><path d="M224.58,320h-10.4c0,.77.07,1.55.1,2.35h10.4C224.65,321.59,224.62,320.8,224.58,320Z" style="fill:#92E3A9"></path><path d="M224.68,322.88h-10.4a.5.5,0,0,1-.5-.48c0-.8-.06-1.58-.1-2.34a.55.55,0,0,1,.14-.37.5.5,0,0,1,.36-.16h10.4a.5.5,0,0,1,.5.48c0,.77.07,1.56.1,2.35a.55.55,0,0,1-.14.37A.51.51,0,0,1,224.68,322.88Zm-9.92-1h9.4l-.06-1.35h-9.4Z" style="fill:#263238"></path><path d="M214.25,262.3h10.41c.12-1.83.2-3.73.26-5.64H214.5C214.43,258.68,214.35,260.57,214.25,262.3Z" style="fill:#92E3A9"></path><path d="M224.66,262.79H214.25a.51.51,0,0,1-.37-.15.52.52,0,0,1-.13-.38c.1-1.7.18-3.59.25-5.61a.5.5,0,0,1,.5-.49h10.42a.51.51,0,0,1,.36.15.55.55,0,0,1,.14.37c-.06,2-.15,3.92-.26,5.65A.5.5,0,0,1,224.66,262.79Zm-9.88-1h9.41c.09-1.43.16-3,.21-4.63H215C214.93,258.81,214.86,260.36,214.78,261.79Z" style="fill:#263238"></path><path d="M184.81,263.7H174.4q.06.72.12,1.41h10.41Q184.87,264.44,184.81,263.7Z" style="fill:#92E3A9"></path><path d="M184.93,265.61H174.52a.5.5,0,0,1-.5-.45c0-.47-.08-.94-.11-1.42a.5.5,0,0,1,.49-.54h10.41a.5.5,0,0,1,.5.47c0,.48.08.95.11,1.4a.47.47,0,0,1-.12.38A.52.52,0,0,1,184.93,265.61Zm-10-1h9.4l0-.41h-9.41C175,264.34,175,264.48,175,264.61Z" style="fill:#263238"></path></g></svg>