<svg xmlns="http://www.w3.org/2000/svg" viewBox="0 0 750 500"><g id="freepik--human-body--inject-130"><path d="M537.8,94.13s.32-4.52-1.77-7.26-6.94-2.75-9-1.94-4.2,2.26-4.68,4.68a24.44,24.44,0,0,0-.32,5.33A1.54,1.54,0,0,0,520.86,97a6.56,6.56,0,0,0,1.45,2.75s.48,2.26.81,3.23a15.93,15.93,0,0,0,2.09,3.06s.33,2.42-.8,3.23-3.88,1.45-7.75,2.74a12.32,12.32,0,0,0-8.23,9,27.46,27.46,0,0,0-.32,7.91l-1.46,9.2A24.35,24.35,0,0,0,505,146.1c-.16,4.52-1,13.55-1,13.55s1,.65-1.29,1.78-2.42,1.93-2.74,2.74-.49,2.42-1.13,2.91-2.75,0-2.42,1.61,2.58.65,2.58.65l1.45-.33v8.23c0,.81.49,1.94,1.29,1,0,0,.81,1.13,1.29.65l.79-.46a2.7,2.7,0,0,0,1.4.23c.45-.17,1.35-1.4,1.35-1.4s.22.67,1.06-.34a6.91,6.91,0,0,0,1.18-3.09c.23-.84,1-5.44,1.18-6.22a36.49,36.49,0,0,0,0-4.94l-.17-1.79s3.65-9.93,4.27-12.29a53.13,53.13,0,0,0,1.51-6.84c.22-2,1.18-6,1.18-6l.39-.17s.06,9.49-.17,10.72-1.9,3.53-1.74,6.45-.84,7.85-1.12,9.54A45.38,45.38,0,0,0,512.7,179c.89,9.37,2.77,14.62,3.86,18.79s.8,6.84.3,10.81.3,5.75,1.69,10.81,3.86,10.41,4.16,12.39-.59,2.18-1.09,3.37-3.17,4.27-3.27,5.56.79,2.28,3.27,3,4.26.69,5.45-.89a4.81,4.81,0,0,0,1.19-3.77c-.09-1.19-.39-1.39,0-2.48a5.38,5.38,0,0,0,.6-3.57c-.3-1.88-.1-.2-.89-4.07s.1-8.92.1-11.1a68.64,68.64,0,0,0-.5-9.92c-.5-2.58-.59-1.39-.89-5s.2-4,.2-6.54a20.63,20.63,0,0,0-.5-4.56s2-10.31,2.08-10.71,1.59-7.24,1.59-7.24a1.1,1.1,0,0,1,.79.6c.2.49,2.78,17.25,2.78,17.25a14.29,14.29,0,0,0-.89,4.46c.1,1.79,1.19,6.84,1.19,6.84s-.8,3.18-1.49,8.13.4,10.12.3,13.19a29,29,0,0,1-.7,6c-.29,1.39-.79,3.37-.29,4.86l.49,1.49a21.49,21.49,0,0,0-.3,4.07c.1,1.78.9,3,2.09,3.17a2.22,2.22,0,0,0,2-.89,4,4,0,0,0,3.07.39c1.69-.49,2.88-1.19,2.48-2.58a10.21,10.21,0,0,0-1.78-3.86c-1.09-1.49-1.79-1.69-2.09-3.47a11.36,11.36,0,0,1,.4-5.46,57.53,57.53,0,0,0,4.36-12.89c1.19-6.44,1-6.84.7-9.12a39.2,39.2,0,0,1,.4-9.62c.49-2.48,4-11.4,4-18.64A102.19,102.19,0,0,0,545.62,160a43.35,43.35,0,0,1-.7-4.66,9.88,9.88,0,0,0,0-4.47c-.59-2.08-1-2.87-1.48-5.15a57.6,57.6,0,0,1-.9-6.05v-3.87s1.89,4.56,2.78,7.74.89,5.05,1.88,8,3.08,8.53,3.48,9.72-.5,3.27-.1,6.44.79,8.63,1.48,9.42,1.49-.1,1.49-.1.3,1.59.89,1.79,1.39-.4,1.39-.4a.82.82,0,0,0,1.19.6,1.93,1.93,0,0,0,1.19-1.09s1.49.59,1.29-1.39-.69-4.66-.69-5.26.1-2.48.1-2.48a4.63,4.63,0,0,0,1.78.9c.79.09,1.59.89,2.18,0s.1-1.19-1-1.89a5,5,0,0,1-2-2.08c-.8-1.19-.1-1.49-1.79-3s-2.77-2.18-2.77-3.47,1.28-9.32.09-15.07-1.78-7.24-2-8.13-2-7.64-2-7.64,1.59-6.24-1.19-11.5-6.55-4.86-9.42-6.15-5.16-1.58-5.55-2.38a8.92,8.92,0,0,1-.6-2.18s2.58-3.57,2.68-4.76l.1-1.19s1.58-.59,2-3.67S537.8,94.13,537.8,94.13Z" style="fill:#92E3A9"></path></g></svg>