<svg xmlns="http://www.w3.org/2000/svg" viewBox="0 0 750 500"><g id="freepik--Arrows--inject-130"><path d="M573,195.57a1,1,0,0,1-.34-.06A40.53,40.53,0,0,1,576.9,118a1,1,0,1,1,.47,1.94,38.53,38.53,0,0,0-4,73.67,1,1,0,0,1,.6,1.28A1,1,0,0,1,573,195.57Z" style="fill:#263238"></path><polygon points="569.9 199.56 581.07 196.56 572.89 188.38 569.9 199.56" style="fill:#263238"></polygon><path d="M594.41,197.12a1,1,0,0,1-.2-2,38.54,38.54,0,0,0,7.74-73,1,1,0,1,1,.8-1.83,40.53,40.53,0,0,1-8.14,76.8Z" style="fill:#263238"></path><polygon points="605.75 116.42 594.41 118.69 602.04 127.38 605.75 116.42" style="fill:#263238"></polygon></g></svg>