<svg xmlns="http://www.w3.org/2000/svg" viewBox="0 0 750 500"><g id="freepik--Cells--inject-130"><circle cx="263.21" cy="307.63" r="17.4" transform="translate(-140.43 276.22) rotate(-45)" style="fill:#263238"></circle><circle cx="264.14" cy="302.97" r="7.77" style="fill:#92E3A9"></circle><path d="M264.14,311.24a8.27,8.27,0,1,1,8.27-8.27A8.28,8.28,0,0,1,264.14,311.24Zm0-15.54a7.27,7.27,0,1,0,7.27,7.27A7.28,7.28,0,0,0,264.14,295.7Z" style="fill:#263238"></path><circle cx="274.33" cy="340.75" r="12.9" transform="translate(-109.52 130.92) rotate(-22.5)" style="fill:#263238"></circle><path d="M280.77,337.3a5.76,5.76,0,1,1-5.75-5.76A5.75,5.75,0,0,1,280.77,337.3Z" style="fill:#92E3A9"></path><path d="M275,343.55a6.26,6.26,0,1,1,6.25-6.26A6.26,6.26,0,0,1,275,343.55ZM275,332a5.26,5.26,0,1,0,5.25,5.25A5.26,5.26,0,0,0,275,332Z" style="fill:#263238"></path><circle cx="244.65" cy="338.79" r="9.96" transform="translate(-141.28 499.06) rotate(-76.72)" style="fill:#263238"></circle><path d="M249.63,336.12a4.45,4.45,0,1,1-4.44-4.44A4.44,4.44,0,0,1,249.63,336.12Z" style="fill:#92E3A9"></path><path d="M245.19,341.07a4.95,4.95,0,1,1,4.94-4.95A5,5,0,0,1,245.19,341.07Zm0-8.89a3.95,3.95,0,1,0,3.94,3.94A3.95,3.95,0,0,0,245.19,332.18Z" style="fill:#263238"></path><circle cx="258.76" cy="271.06" r="12.9" transform="translate(-41.14 46.36) rotate(-9.49)" style="fill:#263238"></circle><path d="M258.34,278.36a5.76,5.76,0,1,1,7.92-1.91A5.75,5.75,0,0,1,258.34,278.36Z" style="fill:#92E3A9"></path><path d="M261.33,279.71a6.24,6.24,0,0,1-3.25-.92h0a6.25,6.25,0,1,1,3.25.92Zm-2.73-1.77a5.26,5.26,0,1,0-1.74-7.23,5.27,5.27,0,0,0,1.74,7.23Z" style="fill:#263238"></path></g></svg>