<svg xmlns="http://www.w3.org/2000/svg" viewBox="0 0 750 500"><g id="freepik--Character--inject-130"><path d="M295.3,118.57s-.41-11.9-.41-12.51,3.69-9.23,4.72-11.9-.19-3.66-.15-10.14c0-6.84,2.39-17-1.28-16.59-5.51.69-5.77,8.58-5.77,10.63s-2.44,4.2-3.26,5.84-5.95,1.23-7.39.41-9.6.41-13.9-1.85-8.95-5-11.82-5a4.59,4.59,0,0,1-4-2.34s-4.1-.21-6.15,2.46a6.49,6.49,0,0,0-.21,7.39c1,1.43-.61,5.54,3.29,11.69a53.89,53.89,0,0,0,11.89,12.93c2.67,2,7.19,6.56,7.8,7s3.9,8.41,3.9,8.41Z" style="fill:#92E3A9"></path><path d="M272.53,125.43a.5.5,0,0,1-.46-.31,70.76,70.76,0,0,0-3.75-8.21c-.22-.14-.87-.75-2.09-1.9-1.72-1.6-4.06-3.81-5.7-5.07a54.33,54.33,0,0,1-12-13,17.84,17.84,0,0,1-2.91-9.57,4.81,4.81,0,0,0-.35-2.1,7,7,0,0,1,.21-8c2.19-2.85,6.4-2.67,6.58-2.66a.49.49,0,0,1,.42.28A4.06,4.06,0,0,0,256,76.92c2.54,0,6.15,1.94,10,4L268.09,82c2.58,1.35,6.73,1.4,9.76,1.44,2.24,0,3.54.06,4.16.42a10.1,10.1,0,0,0,5.74.4,1.51,1.51,0,0,0,.95-.6,12.77,12.77,0,0,1,1.3-1.92c.9-1.18,1.91-2.52,1.91-3.7,0-3.11.6-10.42,6.21-11.12a1.79,1.79,0,0,1,1.57.49c1.46,1.41,1.1,5.54.67,10.32-.19,2.14-.39,4.35-.4,6.27a41.09,41.09,0,0,0,.38,5.94,7.84,7.84,0,0,1-.26,4.38c-.37.94-1.06,2.61-1.8,4.42-1.19,2.88-2.82,6.83-2.89,7.33s.41,12.35.41,12.47a.48.48,0,0,1-.36.49l-22.78,6.36A.3.3,0,0,1,272.53,125.43ZM251.72,75.58c-.9,0-3.89.21-5.47,2.27a6,6,0,0,0-.19,6.79,5,5,0,0,1,.54,2.63,16.91,16.91,0,0,0,2.76,9.08,53.19,53.19,0,0,0,11.78,12.8c1.68,1.29,4,3.51,5.77,5.13.93.87,1.8,1.69,2,1.82.59.4,2.42,4.6,3.91,8.23l22-6.13c-.07-2.1-.4-11.58-.4-12.14s.74-2.29,3-7.68c.75-1.8,1.43-3.47,1.79-4.4a6.82,6.82,0,0,0,.21-3.89A42.61,42.61,0,0,1,299,84c0-2,.21-4.19.41-6.35.35-4,.75-8.44-.37-9.51a.87.87,0,0,0-.76-.22c-4.81.6-5.33,7.29-5.33,10.13,0,1.52-1.12,3-2.11,4.3a12.45,12.45,0,0,0-1.21,1.76A2.38,2.38,0,0,1,288,85.24a10.8,10.8,0,0,1-6.53-.49,13.4,13.4,0,0,0-3.67-.29c-3.13,0-7.42-.09-10.22-1.56l-2.08-1.11c-3.55-1.9-7.21-3.87-9.5-3.87A5.05,5.05,0,0,1,251.72,75.58Z" style="fill:#263238"></path><path d="M264.77,83.48l-5.68-2.84a23.65,23.65,0,0,1,.09-5.68c.46-1.74,1.28-3.94-.37-4.39s-3.84,3-3.84,3-1.56,3.21-1.84,3.94-1.83,3.39-1.65,4.12,3.3,5.59,3.3,5.59" style="fill:#92E3A9"></path><path d="M254.78,87.74a.51.51,0,0,1-.42-.23A54,54,0,0,1,251,81.77c-.16-.65.39-1.83,1.2-3.43.21-.43.39-.78.47-1,.27-.74,1.78-3.85,1.85-4,.27-.44,2.48-3.82,4.43-3.29A1.81,1.81,0,0,1,260.3,72a9.82,9.82,0,0,1-.48,2.5l-.16.57a21.65,21.65,0,0,0-.1,5.23L265,83a.5.5,0,1,1-.44.89l-5.69-2.84a.52.52,0,0,1-.27-.4,23.84,23.84,0,0,1,.11-5.85l.16-.58A9.83,9.83,0,0,0,259.3,72c0-.71-.3-.89-.62-1-.89-.25-2.46,1.49-3.29,2.81h0S253.86,77,253.6,77.7c-.08.23-.28.62-.51,1.09A11,11,0,0,0,252,81.54,59,59,0,0,0,255.2,87a.5.5,0,0,1-.42.77Z" style="fill:#263238"></path><path d="M248.37,73.86s3-4.21,5-4,2,2.57,1.56,3.76-3.21,5.86-3.21,5.86,1.28,4.22,1.74,5.23" style="fill:#92E3A9"></path><path d="M253.5,85.18a.49.49,0,0,1-.45-.3c-.47-1-1.72-5.11-1.77-5.28a.51.51,0,0,1,.05-.4s2.73-4.65,3.17-5.79a3.12,3.12,0,0,0-.08-2.47,1.3,1.3,0,0,0-1.06-.61c-1.27-.14-3.48,2.29-4.58,3.83a.51.51,0,0,1-.7.11.5.5,0,0,1-.12-.7c.33-.45,3.26-4.43,5.49-4.23a2.3,2.3,0,0,1,1.82,1.07,4.08,4.08,0,0,1,.16,3.36c-.42,1.09-2.6,4.84-3.13,5.75.27.86,1.27,4.11,1.66,5a.5.5,0,0,1-.25.66A.54.54,0,0,1,253.5,85.18Z" style="fill:#263238"></path><path d="M244.39,92s-2.46-9.44-2.46-10.26,2.26-9.44,4.93-10.26,2.25,2.46,2,3.7-.82,4.92-1,7,5.75,8.41,5.75,8.41" style="fill:#92E3A9"></path><path d="M244.39,92.45a.5.5,0,0,1-.48-.38c-.41-1.58-2.48-9.54-2.48-10.38s2.18-9.78,5.28-10.74a2.07,2.07,0,0,1,2.09.27c.74.65.94,2,.6,4-.2,1.21-.82,4.9-1,6.94-.13,1.33,3.37,5.63,5.61,8a.5.5,0,0,1,0,.71.5.5,0,0,1-.71,0c-1-1.09-6.09-6.63-5.88-8.8s.83-5.79,1-7c.38-2.23-.06-2.89-.27-3.07a1.19,1.19,0,0,0-1.14-.06c-2.29.71-4.56,8.91-4.57,9.78,0,.59,1.51,6.53,2.45,10.13a.5.5,0,0,1-.36.61Z" style="fill:#263238"></path><path d="M278.27,107.58a.54.54,0,0,1-.35-.14,9.72,9.72,0,0,1-1.12-10.22,62.45,62.45,0,0,1,3.31-6,.5.5,0,0,1,.84.56,59.65,59.65,0,0,0-3.26,5.89,8.65,8.65,0,0,0,.94,9.07.51.51,0,0,1,0,.71A.54.54,0,0,1,278.27,107.58Z" style="fill:#263238"></path><rect x="248.52" y="77.34" width="50.67" height="13.6" style="fill:#fff"></rect><path d="M299.2,91.43H248.53a.5.5,0,0,1-.5-.5V77.34a.5.5,0,0,1,.5-.5H299.2a.5.5,0,0,1,.5.5V90.93A.5.5,0,0,1,299.2,91.43Zm-50.17-1H298.7V77.84H249Z" style="fill:#263238"></path><rect x="248.52" y="77.34" width="9.54" height="13.6" style="fill:#fff"></rect><path d="M258.06,91.43h-9.53a.5.5,0,0,1-.5-.5V77.34a.5.5,0,0,1,.5-.5h9.53a.5.5,0,0,1,.5.5V90.93A.5.5,0,0,1,258.06,91.43Zm-9-1h8.53V77.84H249Z" style="fill:#263238"></path><rect x="259.81" y="84.31" width="37.54" height="4.31" style="fill:#92E3A9"></rect><path d="M297.35,89.12H259.81a.5.5,0,0,1-.5-.5V84.31a.5.5,0,0,1,.5-.5h37.54a.5.5,0,0,1,.5.5v4.31A.5.5,0,0,1,297.35,89.12Zm-37-1h36.54V84.81H260.31Z" style="fill:#263238"></path><path d="M255.78,104.21s-13-8.4-13-9.76,2.65-14.86,3.09-16.91,5-4.43,5.31-.16-.81,12.47-.81,12.47,7,5.69,8.67,6.5" style="fill:#92E3A9"></path><path d="M255.78,104.71a.53.53,0,0,1-.27-.08c-4.94-3.2-13.24-8.76-13.24-10.18s2.73-15.27,3.1-17a4.33,4.33,0,0,1,4-2.93c.62,0,2.08.4,2.26,2.84.28,3.87-.58,10.79-.78,12.28a99.36,99.36,0,0,0,8.36,6.27.5.5,0,1,1-.44.9c-1.66-.83-8.47-6.33-8.76-6.56a.53.53,0,0,1-.19-.46c0-.08,1.12-8.19.81-12.36-.08-1.22-.53-1.86-1.33-1.91a3.34,3.34,0,0,0-3,2.13c-.45,2.11-3.08,15.53-3.08,16.81.32.86,6.75,5.44,12.78,9.34a.5.5,0,0,1,.15.69A.51.51,0,0,1,255.78,104.71Z" style="fill:#263238"></path><path d="M332.07,420.45s-.36-20.49-3.66-50.86,13.91-118.2,13.91-118.2-24.52-13.54-30.74-17.94-32.94-34.39-34-37.69S264.37,124.4,268,123.31s28.18-7,28.18-7,4,11.35,4.39,12.44,16.47,46.85,23.42,49,21.23,8.78,25.25,10.25,10.25,1.46,15.74,1.83,20.86,2.56,20.86,2.56,25.61,2.56,36.22,6.59,30.74,24.15,36.23,32.2,22.69,43.55,23.79,60S469.3,374,469.3,374l5.12,48.67" style="fill:#fff"></path><path d="M474.42,423.15a.49.49,0,0,1-.49-.45L468.8,374a.76.76,0,0,1,0-.15c.14-.67,13.88-66.36,12.8-82.57-1.1-16.53-18.25-51.78-23.7-59.77-5.56-8.16-25.73-28.12-36-32-10.43-4-35.85-6.53-36.1-6.55s-15.44-2.2-20.85-2.56c-1.11-.08-2.26-.14-3.41-.2-4.52-.23-9.18-.47-12.46-1.66-1.49-.54-4.38-1.78-7.72-3.22-5.85-2.51-13.13-5.64-17.51-7-7.29-2.31-23.59-48.89-23.74-49.36-.32-1-3.51-9.94-4.24-12-3.32.8-24.38,5.84-27.72,6.84-2.76,2.61,8.39,67.45,9.85,71.82,1,3,27.64,33.06,33.85,37.45s30.44,17.76,30.69,17.9a.5.5,0,0,1,.25.53c-.17.88-17.15,88.1-13.9,118s3.66,50.71,3.66,50.91a.49.49,0,0,1-.49.51.48.48,0,0,1-.51-.49c0-.2-.4-20.82-3.65-50.82-3.16-29.12,12.65-111.83,13.84-118-2.9-1.61-24.68-13.7-30.47-17.79s-33-34.23-34.22-37.94-12.5-67.31-9.78-72.54a1,1,0,0,1,.6-.55c3.63-1.09,27.2-6.72,28.2-7a.5.5,0,0,1,.59.32c.16.46,4,11.36,4.39,12.45,1.93,5.77,16.95,46.77,23.1,48.71,4.43,1.4,11.73,4.54,17.6,7.06,3.33,1.43,6.21,2.67,7.67,3.2,3.14,1.14,7.73,1.37,12.17,1.6,1.16.06,2.31.12,3.43.2,5.44.36,20.74,2.54,20.9,2.56s25.78,2.62,36.33,6.62S453,222.52,458.74,231c5.48,8,22.76,43.58,23.87,60.26,1.08,16.22-12,79.11-12.8,82.76l5.11,48.6a.5.5,0,0,1-.44.55Z" style="fill:#263238"></path><path d="M402,246.15a.5.5,0,0,1-.49-.44.5.5,0,0,1,.43-.56,153.06,153.06,0,0,0,27.88-7.24.5.5,0,0,1,.34.94A154,154,0,0,1,402,246.14Z" style="fill:#263238"></path><path d="M394.42,244.8a.49.49,0,0,1-.49-.42c-1.08-6.46.72-19.51.8-20.06a.51.51,0,0,1,.57-.43.5.5,0,0,1,.42.57c0,.13-1.86,13.45-.81,19.76a.49.49,0,0,1-.41.57Z" style="fill:#263238"></path><path d="M414.87,246.15a.49.49,0,0,1-.49-.41.49.49,0,0,1,.4-.58c.18,0,17.74-3.25,22.73-5.88a.5.5,0,0,1,.47.89c-5.13,2.7-22.29,5.84-23,6Z" style="fill:#263238"></path><path d="M333,218.24a.51.51,0,0,1-.48-.37l-1.32-4.77a.5.5,0,1,1,1-.27l1.32,4.77a.51.51,0,0,1-.35.62Z" style="fill:#263238"></path><path d="M342.32,251.89a.5.5,0,0,1-.48-.37l-8.21-29.72a.5.5,0,0,1,.35-.62.5.5,0,0,1,.61.35l7.14,25.86-.64-30.76a.5.5,0,0,1,.49-.51h0a.51.51,0,0,1,.5.49l.73,34.77a.51.51,0,0,1-.43.5Z" style="fill:#263238"></path><path d="M297.31,192.24a.5.5,0,0,1-.16-1c9.61-3.2,18.32-15.78,18.41-15.91a.5.5,0,1,1,.82.57c-.36.53-9,13-18.92,16.29Z" style="fill:#263238"></path><path d="M294.38,200.29a.5.5,0,0,1-.2-1,41.4,41.4,0,0,0,4.65-2.35.49.49,0,0,1,.68.18.5.5,0,0,1-.17.68,40.28,40.28,0,0,1-4.77,2.41A.43.43,0,0,1,294.38,200.29Z" style="fill:#263238"></path><path d="M302.28,195.85a.49.49,0,0,1-.41-.21.51.51,0,0,1,.12-.7,57.84,57.84,0,0,0,12.11-11.55.5.5,0,0,1,.81.59,58.63,58.63,0,0,1-12.34,11.78A.52.52,0,0,1,302.28,195.85Z" style="fill:#263238"></path><path d="M382.21,285.92h-.12a.5.5,0,0,1-.37-.61c2.9-12,11.65-33.16,11.73-33.37a.5.5,0,0,1,.93.38c-.09.21-8.8,21.33-11.69,33.23A.49.49,0,0,1,382.21,285.92Z" style="fill:#263238"></path><path d="M374.89,410.71a.51.51,0,0,1-.5-.45s-.26-2.52-.64-6.62a.51.51,0,0,1,.45-.55.52.52,0,0,1,.55.45c.38,4.1.63,6.61.63,6.62a.49.49,0,0,1-.44.54Z" style="fill:#263238"></path><path d="M373.91,400.38a.51.51,0,0,1-.5-.46c-.62-7-1.15-13.75-1.58-20.05-1.09-15.95.35-42.25.36-42.51a.49.49,0,0,1,.53-.48.5.5,0,0,1,.47.53c0,.26-1.45,26.5-.37,42.39.43,6.29,1,13,1.59,20a.5.5,0,0,1-.45.54Z" style="fill:#263238"></path><path d="M418.39,139.77s-6.37,1.82-7.65,5.27a27.48,27.48,0,0,1-5.28,8.74c-1.64,1.64-10.92,3.1-12.38,5.65s-8.74,12.92-11.29,22.21-.36,14,1.1,16.2,7.82,8.38,10.37,9.47,5.83,2.19,5.83,2.19,2,13.1,1.64,16.56-5.46,18-3.64,18.21,21.12-11.65,31-16.39,14.2-6,14.2-6l10.2-1.82a12.35,12.35,0,0,0,4-7.65c.73-5.1-4.19-4.73-8.92-16.39s-3.1-42.05-11.11-49.15-14.2-9.84-14.2-9.84Z" style="fill:#fff"></path><path d="M397.11,244.77H397a.83.83,0,0,1-.6-.36c-.73-1.08.31-5.1,2.11-11.6a62.54,62.54,0,0,0,1.68-6.8c.32-3.07-1.29-14.16-1.59-16.14-.86-.29-3.48-1.2-5.57-2.1-2.78-1.19-9.18-7.52-10.6-9.65-2.69-4-3.08-9.62-1.16-16.61,2.12-7.71,7.49-16.21,10.08-20.3.56-.89,1-1.58,1.26-2,.94-1.64,4.35-2.74,7.66-3.8,2.06-.66,4.19-1.34,4.8-1.95a27,27,0,0,0,5.16-8.56c1.28-3.47,7.09-5.32,7.9-5.56l3.75-2.68a.48.48,0,0,1,.49,0c.26.11,6.36,2.84,14.34,9.91,4.88,4.33,6.24,16.71,7.56,28.67.91,8.22,1.76,16,3.67,20.68a33.87,33.87,0,0,0,6.48,10.56c1.73,2,2.87,3.33,2.48,6.08a12.73,12.73,0,0,1-4.2,8,.55.55,0,0,1-.22.1l-10.19,1.82s-4.41,1.31-14.07,6c-4.4,2.11-10.81,5.72-16.48,8.9C402.54,242.44,398.28,244.77,397.11,244.77Zm.16-.93h0Zm25-106.23-3.59,2.56a.55.55,0,0,1-.15.08c-.07,0-6.15,1.79-7.32,5a28.3,28.3,0,0,1-5.39,8.92c-.78.78-2.83,1.43-5.21,2.19-2.83.91-6.35,2-7.09,3.35-.27.45-.71,1.16-1.29,2.07-2.55,4-7.88,12.46-10,20-1.84,6.7-1.5,12,1,15.8,1.45,2.16,7.78,8.26,10.16,9.28s5.76,2.16,5.79,2.17a.47.47,0,0,1,.33.4c.09.54,2,13.21,1.65,16.7a62.85,62.85,0,0,1-1.71,7c-1,3.62-2.68,9.62-2.29,10.69,1.26-.19,8-4,14.06-7.4,5.68-3.19,12.11-6.81,16.53-8.94,9.76-4.69,14.1-6,14.28-6l10.12-1.81a12.17,12.17,0,0,0,3.73-7.25c.32-2.3-.59-3.36-2.25-5.28a35,35,0,0,1-6.64-10.85c-2-4.82-2.83-12.65-3.74-20.94-1.3-11.78-2.65-24-7.24-28A64.34,64.34,0,0,0,422.27,137.61Zm-3.88,2.16h0Z" style="fill:#263238"></path><polygon points="399.09 209.5 413.01 208.91 400.53 219.26 399.09 209.5" style="fill:#263238"></polygon><path d="M400.53,219.76a.57.57,0,0,1-.18,0,.49.49,0,0,1-.31-.4l-1.44-9.76a.46.46,0,0,1,.1-.39.51.51,0,0,1,.37-.18l13.92-.59a.5.5,0,0,1,.49.32.48.48,0,0,1-.15.56l-12.48,10.36A.52.52,0,0,1,400.53,219.76Zm-.86-9.79,1.23,8.34,10.65-8.84Z" style="fill:#263238"></path><path d="M382.89,197.84c1.45,2.19,7.82,8.38,10.37,9.47s5.83,2.19,5.83,2.19l9.65-2.73s3.09-1.46,9.65-.55a92.59,92.59,0,0,0,14.38.55l-1.45-1.83s-20.4.37-22.58-1.27-2.55-4-.91-8.74,7.1-16.38,7.1-16.38l21.12,10-1.28-3.1a164.44,164.44,0,0,1-19.48-9.65c-8.37-5.09-22.21-16.38-22.21-16.38-1.45,2.55-8.74,12.92-11.29,22.21S381.43,195.66,382.89,197.84Z" style="fill:#92E3A9"></path><path d="M399.09,210a.45.45,0,0,1-.16,0s-3.32-1.11-5.86-2.2c-2.78-1.19-9.18-7.52-10.6-9.65h0c-2.69-4-3.08-9.62-1.16-16.61,2.12-7.71,7.49-16.21,10.08-20.3.56-.89,1-1.58,1.26-2a.47.47,0,0,1,.34-.24.5.5,0,0,1,.41.1c.14.11,13.9,11.33,22.15,16.35A164,164,0,0,0,435,185a.5.5,0,0,1,.28.27l1.27,3.1a.5.5,0,0,1-.67.64l-20.67-9.8c-1,2.2-5.44,11.76-6.87,15.88-1.74,5-1,6.87.74,8.18,1.49,1.12,14.45,1.32,22.27,1.17a.54.54,0,0,1,.4.19l1.45,1.82a.49.49,0,0,1-.36.81,92.23,92.23,0,0,1-14.48-.55c-6.29-.87-9.34.49-9.37.51L399.23,210ZM383.3,197.57c1.45,2.16,7.78,8.26,10.16,9.28,2.2.94,5,1.9,5.64,2.12l9.5-2.69c.06,0,3.23-1.48,9.86-.56a88.94,88.94,0,0,0,13.3.58l-.68-.85c-3,.05-20.45.26-22.64-1.38-2.46-1.84-2.76-4.45-1.08-9.3s7.06-16.32,7.12-16.44a.51.51,0,0,1,.28-.26.55.55,0,0,1,.38,0l19.95,9.46-.7-1.7A166.5,166.5,0,0,1,415,176.24c-7.46-4.54-19.36-14.08-21.81-16.06-.26.42-.59.95-1,1.57-2.55,4-7.88,12.46-10,20-1.84,6.7-1.5,12,1,15.8Z" style="fill:#263238"></path><path d="M410,179.38a.59.59,0,0,1-.23,0c-.81-.41-1.85-1-3.09-1.68a.49.49,0,0,1-.19-.68.5.5,0,0,1,.68-.19c1.23.7,2.26,1.26,3.05,1.65a.5.5,0,0,1,.22.68A.49.49,0,0,1,410,179.38Z" style="fill:#263238"></path><path d="M404,176a.59.59,0,0,1-.25-.07c-6.3-3.73-14.09-8.7-14.17-8.75a.5.5,0,1,1,.54-.84c.08,0,7.86,5,14.14,8.72a.51.51,0,0,1,.18.69A.52.52,0,0,1,404,176Z" style="fill:#263238"></path><path d="M406.76,190.46l-.16,0c-.58-.2-14.45-4.84-18.49-7.36a.51.51,0,0,1-.16-.69.5.5,0,0,1,.69-.15c3.94,2.45,18.14,7.2,18.28,7.25a.5.5,0,0,1-.16,1Z" style="fill:#263238"></path><path d="M401.57,202.81a34.19,34.19,0,0,1-3.78-.2.49.49,0,0,1-.44-.55.49.49,0,0,1,.55-.44,34.93,34.93,0,0,0,4.57.18.53.53,0,0,1,.51.49.5.5,0,0,1-.49.51Z" style="fill:#263238"></path><path d="M394.72,202.15h-.09a32,32,0,0,1-8.76-2.93.5.5,0,1,1,.48-.87,32.06,32.06,0,0,0,8.47,2.82.5.5,0,0,1,.39.59A.49.49,0,0,1,394.72,202.15Z" style="fill:#263238"></path><path d="M418.39,139.77a219.68,219.68,0,0,1,9.83,27.85A94.86,94.86,0,0,1,432,198.75c0,1.28-3.64,6.56-3.27,9.29s8.55,8.37,10,11.29,4.37,5.64,5.83,5.82,9.28,3.1,17.29-1.45,7.83-8,6.37-12.93-3.09-6.55-2.54-8,4.18.18,13.65-10.74,6.74-27.68,2.37-39.69-38.6-25.13-43.33-25.67-15.48,6.91-17.85,9.28S418.39,139.77,418.39,139.77Z" style="fill:#92E3A9"></path><path d="M452.09,226.73a28.07,28.07,0,0,1-6.65-.88,8.43,8.43,0,0,0-.9-.2c-1.73-.22-4.75-3.18-6.21-6.1-.61-1.22-2.63-3.09-4.58-4.9-2.7-2.5-5.25-4.86-5.48-6.54-.25-1.86,1.1-4.58,2.18-6.78a11.75,11.75,0,0,0,1.09-2.58c0-.11,0-.33,0-.63a97.36,97.36,0,0,0-3.83-30.36A220.62,220.62,0,0,0,417.93,140a.57.57,0,0,1,0-.14c0-.18-.14-1.77,2.33-4.24,2.21-2.22,13.2-10,18.25-9.43,4.16.48,39.23,13.57,43.75,26,3.57,9.82,8,28.11-2.46,40.19-6.78,7.82-10.66,9.29-12.52,10-.67.26-1,.38-1.05.59-.23.63.11,1.4.73,2.81a38.48,38.48,0,0,1,1.83,4.88c1.45,4.89,1.83,8.71-6.6,13.5A20.08,20.08,0,0,1,452.09,226.73Zm-33.2-87.08a226.27,226.27,0,0,1,9.81,27.83,98.34,98.34,0,0,1,3.86,30.69c0,.28,0,.47,0,.58a9.43,9.43,0,0,1-1.19,3c-1,2-2.29,4.64-2.09,6.19.18,1.33,2.83,3.79,5.17,5.95,2.11,2,4.11,3.8,4.8,5.18,1.37,2.75,4.19,5.4,5.44,5.56a9.19,9.19,0,0,1,1,.21c2.53.61,9.24,2.22,16-1.61,7.82-4.44,7.53-7.63,6.14-12.35a38,38,0,0,0-1.79-4.75c-.71-1.6-1.13-2.56-.75-3.58.24-.63.82-.85,1.63-1.16,1.78-.68,5.49-2.09,12.11-9.73,10.13-11.69,5.78-29.57,2.28-39.19-4.24-11.66-37.63-24.74-42.92-25.35-4.41-.51-14.94,6.65-17.43,9.14C419.07,138.15,418.9,139.37,418.89,139.65Z" style="fill:#263238"></path><path d="M422.76,144.27a.5.5,0,0,1-.39-.18.52.52,0,0,1,.07-.71c.13-.1,3-2.44,5.29-3a.5.5,0,0,1,.61.37.49.49,0,0,1-.36.6,17.48,17.48,0,0,0-4.91,2.82A.51.51,0,0,1,422.76,144.27Z" style="fill:#263238"></path><path d="M427.49,148.28a.5.5,0,0,1,0-1l4.37-.37a.5.5,0,1,1,.08,1l-4.37.36Z" style="fill:#263238"></path><path d="M427.67,158.84a.5.5,0,0,1-.09-1,34.78,34.78,0,0,0,4.42-1,.5.5,0,0,1,.45.89,37.8,37.8,0,0,1-4.68,1.14Z" style="fill:#263238"></path><path d="M430.41,169.21a.5.5,0,0,1-.16-1,16.23,16.23,0,0,1,4.52-.75.5.5,0,0,1,.5.5.5.5,0,0,1-.5.5,15.41,15.41,0,0,0-4.21.7A.39.39,0,0,1,430.41,169.21Z" style="fill:#263238"></path><path d="M433.86,177.77a.5.5,0,0,1,0-1c.51,0,3.06-.43,4.65-.72a.5.5,0,1,1,.18,1C438.27,177.11,434.62,177.77,433.86,177.77Z" style="fill:#263238"></path><path d="M438.6,187.6h-4.74a.5.5,0,0,1-.5-.5.51.51,0,0,1,.5-.5h4.74a.51.51,0,0,1,.5.5A.5.5,0,0,1,438.6,187.6Z" style="fill:#263238"></path><path d="M435.35,199.39a4.58,4.58,0,0,1-1.89-.37.5.5,0,0,1-.23-.67.51.51,0,0,1,.67-.23,4.62,4.62,0,0,0,3.93-.36.5.5,0,0,1,.67.22.52.52,0,0,1-.22.68A6.56,6.56,0,0,1,435.35,199.39Z" style="fill:#263238"></path><path d="M434.75,208.65a8.11,8.11,0,0,1-4.64-1.3.5.5,0,0,1,.59-.8,7.82,7.82,0,0,0,5.46,1c3.66-.54,8.67-1.29,12.09,0a.51.51,0,0,1-.37.94c-3.16-1.24-8-.51-11.57,0A9.59,9.59,0,0,1,434.75,208.65Z" style="fill:#263238"></path><path d="M456.62,219.65a.5.5,0,0,1-.41-.22c-3.16-4.56-11.36-8.16-11.44-8.2a.5.5,0,1,1,.4-.92c.35.15,8.54,3.76,11.86,8.55a.51.51,0,0,1-.12.7A.52.52,0,0,1,456.62,219.65Z" style="fill:#263238"></path><path d="M466.64,196a.54.54,0,0,1-.21,0,16.59,16.59,0,0,0-3-.68.5.5,0,1,1,.17-1,19.35,19.35,0,0,1,3.25.75.49.49,0,0,1,.25.66A.49.49,0,0,1,466.64,196Z" style="fill:#263238"></path><path d="M440.42,197.8a.5.5,0,0,1-.22-1,56.23,56.23,0,0,1,8.27-3.31c2.7-.77,8.93-.12,11.49.2a.49.49,0,0,1,.43.56.5.5,0,0,1-.56.43c-5.19-.64-9.33-.73-11.08-.23a56.43,56.43,0,0,0-8.11,3.25A.59.59,0,0,1,440.42,197.8Z" style="fill:#263238"></path><path d="M456.83,199.27a78,78,0,0,1-11-.93.5.5,0,0,1,.16-1c.1,0,10,1.61,15.85.55a.5.5,0,0,1,.18,1A29.82,29.82,0,0,1,456.83,199.27Z" style="fill:#263238"></path><path d="M437.32,171.22a.48.48,0,0,1-.41-.23.49.49,0,0,1,.14-.69c.09-.06,9.23-6.07,15.76-8.43a.5.5,0,0,1,.64.3.49.49,0,0,1-.3.64c-6.42,2.32-15.46,8.26-15.55,8.32A.49.49,0,0,1,437.32,171.22Z" style="fill:#263238"></path><path d="M469.69,161.5a.49.49,0,0,1-.36-.15.5.5,0,0,1,0-.71,19.08,19.08,0,0,0,2.52-2.76.49.49,0,0,1,.69-.14.5.5,0,0,1,.15.69,19.77,19.77,0,0,1-2.67,2.94A.48.48,0,0,1,469.69,161.5Z" style="fill:#263238"></path><path d="M449.23,170.83a35.08,35.08,0,0,1-6.18-.53.51.51,0,0,1-.39-.59.49.49,0,0,1,.59-.39c.11,0,11.71,2.25,19.09-3,1.38-1,2.68-2,3.85-2.91a.49.49,0,0,1,.7.07.48.48,0,0,1-.07.7c-1.19,1-2.5,2-3.9,3C458.71,170.13,453.33,170.83,449.23,170.83Z" style="fill:#263238"></path><path d="M471,149.55l-.16,0s-3.18-1-7.09-2.16a.49.49,0,0,1-.34-.62.5.5,0,0,1,.62-.34c3.93,1.14,7.09,2.15,7.12,2.16a.5.5,0,0,1,.32.63A.49.49,0,0,1,471,149.55Z" style="fill:#263238"></path><path d="M434.41,149.55a.49.49,0,0,1-.45-.28.5.5,0,0,1,.23-.67c.42-.2,10.31-5,14.17-5.51,1.52-.21,5.32.49,11.3,2.1a.5.5,0,0,1,.35.61.48.48,0,0,1-.61.35c-7.29-2-9.94-2.21-10.9-2.07-3.7.53-13.77,5.37-13.87,5.42A.59.59,0,0,1,434.41,149.55Z" style="fill:#263238"></path><path d="M452.8,149h0a111.87,111.87,0,0,0-11.59,0,.48.48,0,0,1-.53-.47.5.5,0,0,1,.47-.53,111,111,0,0,1,11.71,0,.5.5,0,0,1,0,1Z" style="fill:#263238"></path><path d="M413.88,160.15c-.86,1.43-2.15,2.23-2.89,1.78s-.64-2,.23-3.39,2.15-2.23,2.89-1.78S414.75,158.72,413.88,160.15Z" style="fill:#263238"></path><path d="M430.05,171.46l-9.29-12.75h0a42.56,42.56,0,0,0-10.39-10.21c-5.14-4.34-5.93-3.95-6.41-3.72a12.12,12.12,0,0,0-3.89,6,4.93,4.93,0,0,0,.65,4.25.91.91,0,0,0,.74.38,1,1,0,0,0,.53-.17c.4-.3.83-.21.53-.62a4.83,4.83,0,0,1-.76-3.08,11.07,11.07,0,0,1,2.86-5,27.68,27.68,0,0,1,4,2.87,45,45,0,0,0-3.47,6.23c-.93,2.42-1.63,5.31.25,8.44a6.59,6.59,0,0,0,4.39,3.18,6,6,0,0,0,1.09.1,6.81,6.81,0,0,0,4.23-1.57,28.94,28.94,0,0,0,4.91-5l8.55,11.73a.89.89,0,0,0,1.27.2A.91.91,0,0,0,430.05,171.46Zm-16-7.1a4.5,4.5,0,0,1-7-1.21c-1.47-2.46-.93-4.75-.11-6.86a42,42,0,0,1,3.22-5.78,42.33,42.33,0,0,1,8.83,8.74A27.58,27.58,0,0,1,414,164.36Z" style="fill:#263238"></path><path d="M419.66,156.29a.5.5,0,0,1-.48-.37c-1.84-6.53-5.29-6-5.44-6a.49.49,0,0,1-.57-.41.5.5,0,0,1,.4-.58c.18,0,4.47-.72,6.57,6.73a.5.5,0,0,1-.34.62Z" style="fill:#263238"></path><path d="M372.39,293.17s-25.78-8.16-35.87-10.31-11.39,0-12.46,1.07-12.67,13.53-14,16.11-2.79,12.89-1.72,14.18,1.72,2.57,4.08-.65a49.1,49.1,0,0,0,4.3-7.52s-.43,12.46.21,15a9.5,9.5,0,0,0,2.58,4.3l.86,1.71s-1.29,1.94-.86,3.23,3.65,2.57,6.23.21a65,65,0,0,1,8-5.58,37.18,37.18,0,0,0,8.16-4.08c3.22-2.37,12-7.74,12-7.74l10.31,3.65L375.61,294Z" style="fill:#92E3A9"></path><path d="M322.56,332.36a4.72,4.72,0,0,1-1.23-.16,3.1,3.1,0,0,1-2.25-1.72c-.41-1.22.39-2.78.76-3.4l-.7-1.39a10,10,0,0,1-2.65-4.48c-.49-1.94-.39-9.1-.3-12.86a42.2,42.2,0,0,1-3.32,5.52c-1.14,1.54-2,2.21-2.77,2.22s-1.36-.64-1.88-1.27l-.22-.28c-1.36-1.63.46-12.35,1.65-14.72,1.35-2.7,13-15.2,14.06-16.24l.18-.19c1.18-1.24,3-3.1,12.73-1,9.93,2.11,35.25,10.11,35.91,10.32l3.21.85a.54.54,0,0,1,.33.28.5.5,0,0,1,0,.43L364.67,317a.5.5,0,0,1-.61.25L354,313.69c-1.33.82-8.89,5.46-11.79,7.59a36.74,36.74,0,0,1-8.24,4.13,64.06,64.06,0,0,0-7.82,5.5A5.27,5.27,0,0,1,322.56,332.36Zm-5.8-26.81.11,0a.5.5,0,0,1,.39.5c0,.13-.42,12.42.2,14.9a8.88,8.88,0,0,0,2.42,4,.57.57,0,0,1,.12.15l.86,1.72a.52.52,0,0,1,0,.5c-.32.48-1.09,1.92-.81,2.79a2.24,2.24,0,0,0,1.56,1.06,4.09,4.09,0,0,0,3.86-1.06,64.12,64.12,0,0,1,8-5.64l.09,0a36.36,36.36,0,0,0,8-4c3.2-2.35,12-7.7,12.07-7.75a.48.48,0,0,1,.42-.05l9.9,3.5,10.91-21.82-2.63-.7h0c-.26-.08-25.87-8.18-35.83-10.29-9.22-2-10.83-.28-11.79.73l-.21.21c-1.36,1.36-12.66,13.57-13.86,16-1.34,2.68-2.64,12.61-1.78,13.64l.23.29c.4.49.78.89,1.07.9s.9-.32,2-1.81a49.42,49.42,0,0,0,4.24-7.43A.51.51,0,0,1,316.76,305.55Z" style="fill:#263238"></path><path d="M316.76,306.55a.39.39,0,0,1-.15,0,.5.5,0,0,1-.33-.62l1.07-3.44a.59.59,0,0,1,.11-.19l12.68-13.75a.5.5,0,0,1,.7,0,.5.5,0,0,1,0,.71l-12.59,13.66-1,3.33A.48.48,0,0,1,316.76,306.55Z" style="fill:#263238"></path><path d="M319.55,325.89l-.12,0a.5.5,0,0,1-.36-.61l4.08-16.32a.45.45,0,0,1,.14-.24l12.89-12a.49.49,0,0,1,.7,0,.5.5,0,0,1,0,.71l-12.78,11.93-4,16.18A.51.51,0,0,1,319.55,325.89Z" style="fill:#263238"></path><path d="M320.41,327.6a.5.5,0,0,1-.31-.1.51.51,0,0,1-.08-.71c.41-.52,10.12-12.7,11-13.57s4.8-4.18,5-4.33a.51.51,0,0,1,.71.06.51.51,0,0,1-.06.71s-4.08,3.43-4.91,4.27c-.67.66-7.43,9.11-10.92,13.49A.5.5,0,0,1,320.41,327.6Z" style="fill:#263238"></path><path d="M431.61,263.46s-6.95,9.52-8.05,12.81-5.49,32.57-5.49,32.57l-44.28-18.3-13.54,30s35.5,28.18,52.7,36.59,36.59,18.67,40.25,17.2,19-30.37,22-46.47,8-35.5,4.75-51.23-15.37-28.91-20.86-32.21" style="fill:#fff"></path><path d="M452.29,375c-4.16,0-14.88-5.16-31.24-13.27l-8.32-4.12c-17.06-8.34-52.44-36.37-52.79-36.65a.51.51,0,0,1-.15-.6l13.54-30a.5.5,0,0,1,.65-.26l43.69,18.05c.66-4.39,4.39-28.95,5.41-32,1.11-3.33,7.84-12.55,8.12-12.94a.49.49,0,0,1,.7-.11.5.5,0,0,1,.11.7c-.07.09-6.92,9.49-8,12.67s-5.42,32.19-5.47,32.48a.49.49,0,0,1-.25.37.5.5,0,0,1-.43,0l-43.83-18.11L360.87,320.4c3.51,2.77,36.18,28.41,52.3,36.3,2.74,1.34,5.54,2.73,8.33,4.11,14.09,7,28.65,14.21,31.51,13.07,3.43-1.37,18.68-29.76,21.65-46.1.49-2.7,1-5.48,1.61-8.33,2.75-13.92,5.88-29.7,3.15-42.71-3.25-15.57-15.23-28.64-20.62-31.88a.48.48,0,0,1-.17-.68.5.5,0,0,1,.68-.18c5.52,3.31,17.77,16.67,21.09,32.53,2.77,13.21-.38,29.1-3.15,43.12-.56,2.84-1.11,5.62-1.6,8.31-2.88,15.82-18.08,45.17-22.27,46.85A3.08,3.08,0,0,1,452.29,375Z" style="fill:#263238"></path><path d="M448.08,322.88a.5.5,0,0,1-.39-.18,23.61,23.61,0,0,0-3.49-3.42.51.51,0,0,1-.08-.71.52.52,0,0,1,.71-.07,24.53,24.53,0,0,1,3.63,3.56.5.5,0,0,1-.07.71A.51.51,0,0,1,448.08,322.88Z" style="fill:#263238"></path><path d="M441.18,317.05a.56.56,0,0,1-.27-.08c-8.66-5.32-19.51-6.89-19.62-6.9a.5.5,0,0,1-.42-.57.48.48,0,0,1,.56-.42c.11,0,11.16,1.61,20,7a.5.5,0,0,1-.26.93Z" style="fill:#263238"></path><path d="M440.39,326.9a.51.51,0,0,1-.4-.2c-5-6.79-14-12.25-14.13-12.31a.5.5,0,0,1,.52-.86c.09.06,9.29,5.63,14.41,12.58a.5.5,0,0,1-.1.7A.55.55,0,0,1,440.39,326.9Z" style="fill:#263238"></path></g></svg>