<svg xmlns="http://www.w3.org/2000/svg" viewBox="0 0 750 500"><g id="freepik--cell-culture-plate--inject-130"><circle cx="645.41" cy="321.49" r="53.4" style="fill:#fff"></circle><path d="M645.41,375.39a53.9,53.9,0,1,1,53.9-53.9A54,54,0,0,1,645.41,375.39Zm0-106.8a52.9,52.9,0,1,0,52.9,52.9A53,53,0,0,0,645.41,268.59Z" style="fill:#263238"></path><circle cx="645.41" cy="308.45" r="53.4" transform="translate(-29.07 546.72) rotate(-45)" style="fill:#fff"></circle><path d="M645.41,362.35a53.9,53.9,0,1,1,53.9-53.9A54,54,0,0,1,645.41,362.35Zm0-106.8a52.9,52.9,0,1,0,52.9,52.9A53,53,0,0,0,645.41,255.55Z" style="fill:#263238"></path><circle cx="645.41" cy="308.45" r="50.31" style="fill:#fff"></circle><path d="M645.41,359.26a50.81,50.81,0,1,1,50.81-50.81A50.86,50.86,0,0,1,645.41,359.26Zm0-100.61a49.81,49.81,0,1,0,49.81,49.8A49.86,49.86,0,0,0,645.41,258.65Z" style="fill:#263238"></path><path d="M645.41,272a52.64,52.64,0,0,0-50.29,37.11,50.29,50.29,0,0,0,100.58,0A52.62,52.62,0,0,0,645.41,272Z" style="fill:#92E3A9"></path><path d="M645.41,359.26a51,51,0,0,1-50.79-50.16.4.4,0,0,1,0-.15,53.12,53.12,0,0,1,101.53,0,.39.39,0,0,1,0,.15A51,51,0,0,1,645.41,359.26Zm-49.79-50.09a49.79,49.79,0,0,0,99.58,0,52.13,52.13,0,0,0-99.58,0Z" style="fill:#263238"></path><circle cx="622.14" cy="309.59" r="4.81" style="fill:#92E3A9"></circle><path d="M622.14,314.9a5.32,5.32,0,1,1,5.31-5.32A5.32,5.32,0,0,1,622.14,314.9Zm0-9.63a4.32,4.32,0,1,0,4.31,4.31A4.32,4.32,0,0,0,622.14,305.27Z" style="fill:#263238"></path><path d="M667,325.36a2.89,2.89,0,1,1-2.88-2.88A2.88,2.88,0,0,1,667,325.36Z" style="fill:#92E3A9"></path><path d="M664.09,328.75a3.39,3.39,0,1,1,3.38-3.39A3.39,3.39,0,0,1,664.09,328.75Zm0-5.77a2.39,2.39,0,1,0,2.38,2.38A2.39,2.39,0,0,0,664.09,323Z" style="fill:#263238"></path><path d="M663.9,290.15a1.93,1.93,0,1,1-1.93-1.92A1.94,1.94,0,0,1,663.9,290.15Z" style="fill:#92E3A9"></path><path d="M662,292.58a2.43,2.43,0,1,1,2.43-2.43A2.42,2.42,0,0,1,662,292.58Zm0-3.85a1.43,1.43,0,1,0,1.43,1.42A1.43,1.43,0,0,0,662,288.73Z" style="fill:#263238"></path><path d="M647,312.86a1.93,1.93,0,1,1-1.92-1.93A1.92,1.92,0,0,1,647,312.86Z" style="fill:#92E3A9"></path><path d="M645,315.28a2.43,2.43,0,1,1,2.42-2.42A2.43,2.43,0,0,1,645,315.28Zm0-3.85a1.43,1.43,0,1,0,1.42,1.43A1.43,1.43,0,0,0,645,311.43Z" style="fill:#263238"></path><path d="M630.8,336.14a3.27,3.27,0,1,1-3.27-3.27A3.26,3.26,0,0,1,630.8,336.14Z" style="fill:#92E3A9"></path><path d="M627.53,339.91a3.77,3.77,0,1,1,3.77-3.77A3.77,3.77,0,0,1,627.53,339.91Zm0-6.54a2.77,2.77,0,1,0,2.77,2.77A2.77,2.77,0,0,0,627.53,333.37Z" style="fill:#263238"></path><path d="M649.66,332.48a1.93,1.93,0,1,1-1.93-1.92A1.92,1.92,0,0,1,649.66,332.48Z" style="fill:#92E3A9"></path><path d="M647.73,334.91a2.43,2.43,0,1,1,2.43-2.43A2.43,2.43,0,0,1,647.73,334.91Zm0-3.85a1.43,1.43,0,1,0,1.43,1.42A1.43,1.43,0,0,0,647.73,331.06Z" style="fill:#263238"></path><circle cx="632.15" cy="290.34" r="1.35" style="fill:#92E3A9"></circle><path d="M632.15,292.19a1.85,1.85,0,1,1,1.84-1.85A1.85,1.85,0,0,1,632.15,292.19Zm0-2.69a.85.85,0,1,0,.84.84A.85.85,0,0,0,632.15,289.5Z" style="fill:#263238"></path><path d="M647,301.12a1,1,0,1,1-1-1A1,1,0,0,1,647,301.12Z" style="fill:#92E3A9"></path><path d="M646,302.58a1.46,1.46,0,1,1,1.46-1.46A1.47,1.47,0,0,1,646,302.58Zm0-1.92a.46.46,0,0,0-.46.46.47.47,0,0,0,.46.46.46.46,0,0,0,.46-.46A.45.45,0,0,0,646,300.66Z" style="fill:#263238"></path><path d="M682,303.62a3.08,3.08,0,1,1-3.08-3.08A3.08,3.08,0,0,1,682,303.62Z" style="fill:#92E3A9"></path><path d="M678.9,307.2a3.58,3.58,0,1,1,3.58-3.58A3.58,3.58,0,0,1,678.9,307.2Zm0-6.16a2.58,2.58,0,1,0,2.58,2.58A2.58,2.58,0,0,0,678.9,301Z" style="fill:#263238"></path></g></svg>