<svg xmlns="http://www.w3.org/2000/svg" viewBox="0 0 750 500"><g id="freepik--Syringe--inject-130"><polygon points="646.48 236.54 641.93 236.54 641.36 225.91 647.04 225.91 646.48 236.54" style="fill:#fff"></polygon><path d="M646.48,237h-4.55a.5.5,0,0,1-.5-.48l-.57-10.62a.47.47,0,0,1,.14-.37.48.48,0,0,1,.36-.16H647a.52.52,0,0,1,.37.16.5.5,0,0,1,.13.37L647,236.56A.5.5,0,0,1,646.48,237Zm-4.08-1H646l.52-9.63h-4.63Z" style="fill:#263238"></path><rect x="636.42" y="218.33" width="15.57" height="8.12" style="fill:#fff"></rect><path d="M652,227H636.42a.5.5,0,0,1-.5-.5v-8.13a.5.5,0,0,1,.5-.5H652a.5.5,0,0,1,.5.5v8.13A.51.51,0,0,1,652,227Zm-15.07-1h14.57v-7.13H636.92Z" style="fill:#263238"></path><rect x="631.34" y="116.77" width="25.73" height="101.56" style="fill:#fff"></rect><path d="M657.07,218.83H631.34a.5.5,0,0,1-.5-.5V116.77a.5.5,0,0,1,.5-.5h25.73a.5.5,0,0,1,.5.5V218.33A.5.5,0,0,1,657.07,218.83Zm-25.23-1h24.73V117.27H631.84Z" style="fill:#263238"></path><rect x="633.16" y="80.52" width="22.09" height="68.9" style="fill:#fff"></rect><path d="M655.25,149.93H633.16a.5.5,0,0,1-.5-.5V80.52a.5.5,0,0,1,.5-.5h22.09a.51.51,0,0,1,.5.5v68.91A.51.51,0,0,1,655.25,149.93Zm-21.59-1h21.09V81H633.66Z" style="fill:#263238"></path><rect x="638.21" y="80.52" width="11.99" height="68.9" style="fill:#fff"></rect><path d="M650.2,149.93h-12a.5.5,0,0,1-.5-.5V80.52a.5.5,0,0,1,.5-.5h12a.51.51,0,0,1,.5.5v68.91A.51.51,0,0,1,650.2,149.93Zm-11.49-1h11V81h-11Z" style="fill:#263238"></path><polygon points="650.2 140.23 638.21 140.23 633.16 140.23 633.16 149.43 638.21 149.43 650.2 149.43 655.25 149.43 655.25 140.23 650.2 140.23" style="fill:#263238"></polygon><path d="M655.25,149.93H633.16a.5.5,0,0,1-.5-.5v-9.2a.5.5,0,0,1,.5-.5h22.09a.5.5,0,0,1,.5.5v9.2A.51.51,0,0,1,655.25,149.93Zm-21.59-1h21.09v-8.2H633.66Z" style="fill:#263238"></path><rect x="633.2" y="150.54" width="22" height="66.01" style="fill:#92E3A9"></rect><path d="M655.2,217.05h-22a.5.5,0,0,1-.5-.5v-66a.5.5,0,0,1,.5-.5h22a.5.5,0,0,1,.5.5v66A.5.5,0,0,1,655.2,217.05Zm-21.5-1h21V151h-21Z" style="fill:#263238"></path><path d="M644.09,295.86a.5.5,0,0,1-.5-.5V237a.5.5,0,0,1,.5-.5.5.5,0,0,1,.5.5v58.33A.51.51,0,0,1,644.09,295.86Z" style="fill:#263238"></path><rect x="623.87" y="113.5" width="40.66" height="4.88" style="fill:#fff"></rect><path d="M664.53,118.88H623.87a.5.5,0,0,1-.5-.5V113.5a.5.5,0,0,1,.5-.5h40.66a.5.5,0,0,1,.5.5v4.88A.5.5,0,0,1,664.53,118.88Zm-40.16-1H664V114H624.37Z" style="fill:#263238"></path><path d="M640.33,141.56H635a.5.5,0,0,1,0-1h5.33a.5.5,0,0,1,0,1Z" style="fill:#263238"></path><path d="M640.33,156.66H635a.5.5,0,0,1-.5-.5.5.5,0,0,1,.5-.5h5.33a.5.5,0,0,1,.5.5A.5.5,0,0,1,640.33,156.66Z" style="fill:#263238"></path><path d="M640.33,161.7H635a.5.5,0,0,1-.5-.5.5.5,0,0,1,.5-.5h5.33a.5.5,0,0,1,.5.5A.5.5,0,0,1,640.33,161.7Z" style="fill:#263238"></path><path d="M640.33,166.73H635a.5.5,0,0,1,0-1h5.33a.5.5,0,0,1,0,1Z" style="fill:#263238"></path><path d="M640.33,171.77H635a.5.5,0,0,1-.5-.5.5.5,0,0,1,.5-.5h5.33a.5.5,0,0,1,.5.5A.5.5,0,0,1,640.33,171.77Z" style="fill:#263238"></path><path d="M640.33,176.8H635a.5.5,0,0,1,0-1h5.33a.5.5,0,0,1,0,1Z" style="fill:#263238"></path><path d="M640.33,181.83H635a.5.5,0,0,1-.5-.5.5.5,0,0,1,.5-.5h5.33a.5.5,0,0,1,.5.5A.5.5,0,0,1,640.33,181.83Z" style="fill:#263238"></path><path d="M640.33,186.87H635a.5.5,0,0,1-.5-.5.5.5,0,0,1,.5-.5h5.33a.5.5,0,0,1,.5.5A.5.5,0,0,1,640.33,186.87Z" style="fill:#263238"></path><path d="M640.33,191.9H635a.5.5,0,0,1,0-1h5.33a.5.5,0,0,1,0,1Z" style="fill:#263238"></path><path d="M640.33,196.94H635a.5.5,0,0,1-.5-.5.5.5,0,0,1,.5-.5h5.33a.5.5,0,0,1,.5.5A.5.5,0,0,1,640.33,196.94Z" style="fill:#263238"></path><path d="M640.33,202H635a.5.5,0,0,1,0-1h5.33a.5.5,0,0,1,0,1Z" style="fill:#263238"></path><path d="M640.33,207H635a.5.5,0,0,1-.5-.5.5.5,0,0,1,.5-.5h5.33a.5.5,0,0,1,.5.5A.5.5,0,0,1,640.33,207Z" style="fill:#263238"></path><rect x="625.08" y="78.09" width="38.24" height="4.07" style="fill:#fff"></rect><path d="M663.32,82.66H625.08a.51.51,0,0,1-.5-.5V78.09a.5.5,0,0,1,.5-.5h38.24a.5.5,0,0,1,.5.5v4.07A.5.5,0,0,1,663.32,82.66Zm-37.74-1h37.24V78.59H625.58Z" style="fill:#263238"></path></g></svg>