<svg xmlns="http://www.w3.org/2000/svg" viewBox="0 0 750 500"><g id="freepik--DNA--inject-130"><rect x="83.57" y="69.06" width="61.16" height="3.25" style="fill:#263238"></rect><path d="M144.72,72.81H83.57a.5.5,0,0,1-.5-.5V69.06a.5.5,0,0,1,.5-.5h61.15a.5.5,0,0,1,.5.5v3.25A.5.5,0,0,1,144.72,72.81Zm-60.65-1h60.15V69.56H84.07Z" style="fill:#263238"></path><rect x="83.57" y="77.49" width="61.16" height="3.25" style="fill:#263238"></rect><path d="M144.72,81.24H83.57a.5.5,0,0,1-.5-.5V77.49a.5.5,0,0,1,.5-.5h61.15a.5.5,0,0,1,.5.5v3.25A.5.5,0,0,1,144.72,81.24Zm-60.65-1h60.15V78H84.07Z" style="fill:#263238"></path><rect x="83.57" y="401.72" width="61.16" height="3.25" style="fill:#263238"></rect><path d="M144.72,405.47H83.57a.5.5,0,0,1-.5-.5v-3.25a.5.5,0,0,1,.5-.5h61.15a.5.5,0,0,1,.5.5V405A.5.5,0,0,1,144.72,405.47Zm-60.65-1h60.15v-2.25H84.07Z" style="fill:#263238"></path><rect x="83.57" y="410.16" width="61.16" height="3.25" style="fill:#263238"></rect><path d="M144.72,413.9H83.57a.5.5,0,0,1-.5-.5v-3.24a.5.5,0,0,1,.5-.5h61.15a.5.5,0,0,1,.5.5v3.24A.5.5,0,0,1,144.72,413.9Zm-60.65-1h60.15v-2.24H84.07Z" style="fill:#263238"></path><rect x="83.57" y="121.54" width="61.16" height="3.25" style="fill:#263238"></rect><path d="M144.72,125.29H83.57a.5.5,0,0,1-.5-.5v-3.25a.5.5,0,0,1,.5-.5h61.15a.5.5,0,0,1,.5.5v3.25A.5.5,0,0,1,144.72,125.29Zm-60.65-1h60.15V122H84.07Z" style="fill:#263238"></path><rect x="83.57" y="130.75" width="61.16" height="3.25" style="fill:#263238"></rect><path d="M144.72,134.5H83.57a.5.5,0,0,1-.5-.5v-3.25a.5.5,0,0,1,.5-.5h61.15a.5.5,0,0,1,.5.5V134A.5.5,0,0,1,144.72,134.5Zm-60.65-1h60.15v-2.25H84.07Z" style="fill:#263238"></path><rect x="83.57" y="139.97" width="61.16" height="3.25" style="fill:#263238"></rect><path d="M144.72,143.71H83.57a.5.5,0,0,1-.5-.5V140a.5.5,0,0,1,.5-.5h61.15a.5.5,0,0,1,.5.5v3.24A.5.5,0,0,1,144.72,143.71Zm-60.65-1h60.15v-2.24H84.07Z" style="fill:#263238"></path><rect x="83.57" y="149.18" width="61.16" height="3.25" style="fill:#263238"></rect><path d="M144.72,152.92H83.57a.5.5,0,0,1-.5-.5v-3.24a.5.5,0,0,1,.5-.5h61.15a.5.5,0,0,1,.5.5v3.24A.5.5,0,0,1,144.72,152.92Zm-60.65-1h60.15v-2.24H84.07Z" style="fill:#263238"></path><rect x="83.57" y="191.61" width="61.16" height="3.25" style="fill:#263238"></rect><path d="M144.72,195.36H83.57a.5.5,0,0,1-.5-.5v-3.25a.5.5,0,0,1,.5-.5h61.15a.5.5,0,0,1,.5.5v3.25A.5.5,0,0,1,144.72,195.36Zm-60.65-1h60.15v-2.25H84.07Z" style="fill:#263238"></path><rect x="83.57" y="200.82" width="61.16" height="3.25" style="fill:#263238"></rect><path d="M144.72,204.57H83.57a.5.5,0,0,1-.5-.5v-3.25a.5.5,0,0,1,.5-.5h61.15a.5.5,0,0,1,.5.5v3.25A.5.5,0,0,1,144.72,204.57Zm-60.65-1h60.15v-2.25H84.07Z" style="fill:#263238"></path><rect x="83.57" y="210.03" width="61.16" height="3.25" style="fill:#263238"></rect><path d="M144.72,213.78H83.57a.5.5,0,0,1-.5-.5V210a.5.5,0,0,1,.5-.5h61.15a.5.5,0,0,1,.5.5v3.25A.5.5,0,0,1,144.72,213.78Zm-60.65-1h60.15v-2.25H84.07Z" style="fill:#263238"></path><rect x="83.57" y="219.24" width="61.16" height="3.25" style="fill:#263238"></rect><path d="M144.72,223H83.57a.5.5,0,0,1-.5-.5v-3.25a.5.5,0,0,1,.5-.5h61.15a.5.5,0,0,1,.5.5v3.25A.5.5,0,0,1,144.72,223Zm-60.65-1h60.15v-2.25H84.07Z" style="fill:#263238"></path><rect x="83.57" y="261.68" width="61.16" height="3.25" style="fill:#263238"></rect><path d="M144.72,265.43H83.57a.5.5,0,0,1-.5-.5v-3.25a.5.5,0,0,1,.5-.5h61.15a.5.5,0,0,1,.5.5v3.25A.5.5,0,0,1,144.72,265.43Zm-60.65-1h60.15v-2.25H84.07Z" style="fill:#263238"></path><rect x="83.57" y="270.89" width="61.16" height="3.25" style="fill:#263238"></rect><path d="M144.72,274.64H83.57a.5.5,0,0,1-.5-.5v-3.25a.5.5,0,0,1,.5-.5h61.15a.5.5,0,0,1,.5.5v3.25A.5.5,0,0,1,144.72,274.64Zm-60.65-1h60.15v-2.25H84.07Z" style="fill:#263238"></path><rect x="83.57" y="280.1" width="61.16" height="3.25" style="fill:#263238"></rect><path d="M144.72,283.85H83.57a.5.5,0,0,1-.5-.5V280.1a.5.5,0,0,1,.5-.5h61.15a.5.5,0,0,1,.5.5v3.25A.5.5,0,0,1,144.72,283.85Zm-60.65-1h60.15V280.6H84.07Z" style="fill:#263238"></path><rect x="83.57" y="289.31" width="61.16" height="3.25" style="fill:#263238"></rect><path d="M144.72,293.06H83.57a.5.5,0,0,1-.5-.5v-3.25a.5.5,0,0,1,.5-.5h61.15a.5.5,0,0,1,.5.5v3.25A.5.5,0,0,1,144.72,293.06Zm-60.65-1h60.15v-2.25H84.07Z" style="fill:#263238"></path><rect x="83.57" y="331.75" width="61.16" height="3.25" style="fill:#263238"></rect><path d="M144.72,335.5H83.57a.5.5,0,0,1-.5-.5v-3.25a.5.5,0,0,1,.5-.5h61.15a.5.5,0,0,1,.5.5V335A.5.5,0,0,1,144.72,335.5Zm-60.65-1h60.15v-2.25H84.07Z" style="fill:#263238"></path><rect x="83.57" y="340.96" width="61.16" height="3.25" style="fill:#263238"></rect><path d="M144.72,344.71H83.57a.5.5,0,0,1-.5-.5V341a.5.5,0,0,1,.5-.5h61.15a.5.5,0,0,1,.5.5v3.25A.5.5,0,0,1,144.72,344.71Zm-60.65-1h60.15v-2.25H84.07Z" style="fill:#263238"></path><rect x="83.57" y="350.17" width="61.16" height="3.25" style="fill:#263238"></rect><path d="M144.72,353.92H83.57a.5.5,0,0,1-.5-.5v-3.25a.5.5,0,0,1,.5-.5h61.15a.5.5,0,0,1,.5.5v3.25A.5.5,0,0,1,144.72,353.92Zm-60.65-1h60.15v-2.25H84.07Z" style="fill:#263238"></path><rect x="83.57" y="359.38" width="61.16" height="3.25" style="fill:#263238"></rect><path d="M144.72,363.13H83.57a.5.5,0,0,1-.5-.5v-3.25a.5.5,0,0,1,.5-.5h61.15a.5.5,0,0,1,.5.5v3.25A.5.5,0,0,1,144.72,363.13Zm-60.65-1h60.15v-2.25H84.07Z" style="fill:#263238"></path><path d="M113.86,376.81c-16.48,8.77-35.14,18.72-35.14,38.9a4.45,4.45,0,0,0,.21,1.32h8.84a4.45,4.45,0,0,0,.21-1.32c0-14.62,14.69-22.44,30.23-30.72,16.47-8.78,35.14-18.72,35.14-38.91S134.68,316,118.21,307.17C102.67,298.89,88,291.07,88,276.45s14.69-22.45,30.23-30.73c16.47-8.77,35.14-18.72,35.14-38.9s-18.67-30.14-35.14-38.91C102.67,159.63,88,151.81,88,137.19s14.69-22.45,30.23-30.73c16.41-8.74,35-18.64,35.14-38.67h-9.27c-.16,14.48-14.76,22.26-30.22,30.49C97.38,107.05,78.72,117,78.72,137.19s18.66,30.13,35.14,38.9c15.54,8.28,30.23,16.1,30.23,30.73s-14.69,22.44-30.23,30.72c-16.48,8.77-35.14,18.72-35.14,38.91s18.66,30.13,35.14,38.9c15.54,8.28,30.23,16.1,30.23,30.73S129.4,368.53,113.86,376.81Z" style="fill:#fff"></path><path d="M87.77,417.53H78.93a.5.5,0,0,1-.48-.36,5,5,0,0,1-.23-1.46c0-20.48,18.8-30.5,35.4-39.34h0c15.41-8.21,30-16,30-30.29S129,324,113.62,315.79C97,307,78.22,296.94,78.22,276.45S97,245.94,113.62,237.1c15.41-8.21,30-16,30-30.28s-14.56-22.08-30-30.29c-16.59-8.84-35.4-18.85-35.4-39.34S97,106.68,113.62,97.84c15.33-8.16,29.8-15.87,30-30a.5.5,0,0,1,.5-.5h9.27a.51.51,0,0,1,.5.51c-.16,20.33-18.88,30.3-35.4,39.1-15.41,8.21-30,16-30,30.29s14.56,22.07,30,30.28c16.59,8.84,35.4,18.86,35.4,39.35s-18.8,30.5-35.4,39.34c-15.41,8.21-30,16-30,30.29s14.56,22.07,30,30.28c16.6,8.84,35.4,18.86,35.4,39.35s-18.81,30.51-35.4,39.35c-15.41,8.21-30,16-30,30.28a5,5,0,0,1-.23,1.46A.5.5,0,0,1,87.77,417.53Zm-8.46-1h8.08a4,4,0,0,0,.09-.82c0-14.92,14.81-22.81,30.5-31.16,16.34-8.71,34.87-18.58,34.87-38.47S134.33,316.32,118,307.62c-15.68-8.36-30.5-16.25-30.5-31.17s14.82-22.82,30.5-31.17c16.35-8.71,34.87-18.58,34.87-38.46S134.32,177.06,118,168.35c-15.69-8.35-30.5-16.24-30.5-31.16S102.29,114.37,118,106c16.14-8.59,34.41-18.33,34.87-37.73h-8.27c-.49,14.46-15.06,22.22-30.48,30.43-16.35,8.71-34.87,18.58-34.87,38.47s18.52,29.75,34.87,38.46c15.68,8.35,30.5,16.24,30.5,31.17s-14.81,22.81-30.5,31.16c-16.35,8.71-34.87,18.58-34.87,38.47s18.52,29.76,34.87,38.46c15.68,8.35,30.5,16.24,30.5,31.17s-14.82,22.82-30.5,31.17l-.23-.44.23.44C97.74,386,79.22,395.83,79.22,415.71A4,4,0,0,0,79.31,416.53Z" style="fill:#263238"></path><path d="M112.67,311.1l-3.38,1.81c1.53.83,3.06,1.64,4.57,2.44,1.76.94,3.52,1.88,5.24,2.82,3.16-1.69,6.36-3.43,9.47-5.29-3.13-1.84-6.34-3.56-9.48-5.24C117,308.8,114.84,310,112.67,311.1Z" style="fill:#263238"></path><path d="M119.1,318.67a.46.46,0,0,1-.23-.06q-2.59-1.41-5.25-2.82c-1.51-.8-3-1.61-4.57-2.44a.51.51,0,0,1-.26-.44.48.48,0,0,1,.27-.44l3.37-1.81h0c2.17-1.15,4.32-2.3,6.42-3.46a.49.49,0,0,1,.47,0c3.07,1.64,6.34,3.39,9.5,5.24a.5.5,0,0,1,0,.86c-3.19,1.91-6.45,3.68-9.49,5.31A.48.48,0,0,1,119.1,318.67Zm-8.75-5.76,3.74,2,5,2.69c2.73-1.46,5.62-3,8.48-4.72-2.84-1.64-5.74-3.2-8.5-4.67-2,1.11-4.1,2.22-6.19,3.33Z" style="fill:#263238"></path><path d="M111.77,238.65c-3.15,1.69-6.35,3.44-9.46,5.3,3.13,1.83,6.34,3.56,9.48,5.23,2.1-1.16,4.25-2.3,6.42-3.46l3.38-1.8L117,241.47Q114.37,240.06,111.77,238.65Z" style="fill:#263238"></path><path d="M111.79,249.68a.53.53,0,0,1-.24-.06c-3.07-1.64-6.34-3.39-9.5-5.24a.51.51,0,0,1,0-.86c3.19-1.91,6.45-3.68,9.49-5.31a.49.49,0,0,1,.47,0q2.59,1.41,5.25,2.82,2.26,1.2,4.56,2.45a.48.48,0,0,1,.27.44.52.52,0,0,1-.27.44l-3.37,1.8c-2.17,1.16-4.32,2.3-6.42,3.46A.5.5,0,0,1,111.79,249.68Zm-8.5-5.74c2.83,1.64,5.74,3.2,8.5,4.67,2-1.11,4.1-2.22,6.19-3.33l2.55-1.36-3.74-2c-1.69-.9-3.37-1.79-5-2.69C109,240.68,106.15,242.26,103.29,243.94Z" style="fill:#263238"></path><path d="M111.77,99.39c-3.15,1.69-6.35,3.44-9.46,5.3,3.13,1.83,6.34,3.56,9.48,5.23,2.1-1.16,4.25-2.3,6.42-3.46l3.38-1.8L117,102.21Q114.37,100.8,111.77,99.39Z" style="fill:#263238"></path><path d="M111.79,110.42a.53.53,0,0,1-.24-.06c-3.06-1.63-6.32-3.38-9.5-5.24a.5.5,0,0,1-.24-.43.47.47,0,0,1,.24-.43c3.19-1.91,6.45-3.68,9.49-5.31a.49.49,0,0,1,.47,0q2.59,1.41,5.25,2.82,2.26,1.2,4.56,2.45a.49.49,0,0,1,.27.44.52.52,0,0,1-.27.44l-3.37,1.8c-2.17,1.16-4.32,2.3-6.42,3.46A.5.5,0,0,1,111.79,110.42Zm-8.5-5.74c2.85,1.65,5.75,3.21,8.5,4.67,2-1.11,4.1-2.22,6.19-3.33l2.55-1.37-3.74-2c-1.69-.9-3.37-1.79-5-2.69C109,101.42,106.15,103,103.29,104.68Z" style="fill:#263238"></path><path d="M118.21,385l3.38-1.81c-1.53-.83-3.06-1.64-4.57-2.44q-2.65-1.41-5.25-2.82c-3.15,1.69-6.35,3.43-9.46,5.29,3.13,1.84,6.34,3.56,9.48,5.24C113.89,387.29,116,386.14,118.21,385Z" style="fill:#263238"></path><path d="M111.79,389a.53.53,0,0,1-.24-.06c-3.07-1.64-6.33-3.39-9.5-5.24a.51.51,0,0,1-.24-.43.5.5,0,0,1,.24-.43c3.19-1.91,6.44-3.68,9.49-5.31a.49.49,0,0,1,.47,0q2.59,1.41,5.25,2.82l.22.12,4.34,2.32a.49.49,0,0,1,0,.88l-3.37,1.81c-2.17,1.15-4.32,2.3-6.42,3.46A.5.5,0,0,1,111.79,389Zm-8.5-5.74c2.84,1.64,5.74,3.2,8.5,4.67,2-1.11,4.1-2.22,6.19-3.33h0l2.55-1.37L117,381.3l-.22-.12c-1.69-.9-3.37-1.79-5-2.69C109,380,106.15,381.52,103.29,383.21Z" style="fill:#263238"></path><path d="M112.67,171.84l-3.38,1.8,4.57,2.45c1.76.94,3.52,1.88,5.24,2.82,3.16-1.69,6.36-3.44,9.47-5.3-3.13-1.83-6.34-3.56-9.48-5.23C117,169.54,114.84,170.68,112.67,171.84Z" style="fill:#263238"></path><path d="M119.11,179.41a.48.48,0,0,1-.24-.06q-2.59-1.41-5.25-2.82l-4.57-2.45a.49.49,0,0,1-.26-.44.5.5,0,0,1,.27-.44l3.37-1.8c2.17-1.16,4.32-2.3,6.42-3.46a.49.49,0,0,1,.47,0c3.08,1.63,6.34,3.39,9.51,5.24a.51.51,0,0,1,0,.86c-3.2,1.92-6.45,3.68-9.49,5.31A.46.46,0,0,1,119.11,179.41Zm-8.76-5.76,3.74,2c1.69.9,3.37,1.79,5,2.69,2.73-1.46,5.62-3,8.48-4.72-2.84-1.64-5.74-3.2-8.5-4.67-2,1.11-4.1,2.22-6.19,3.33h0Zm2.32-1.81h0Z" style="fill:#263238"></path><path d="M112,307.17C95.54,316,76.87,325.89,76.87,346.08S95.54,376.21,112,385c15.55,8.28,30.23,16.1,30.23,30.72a4.79,4.79,0,0,0,.21,1.32h8.85a4.79,4.79,0,0,0,.21-1.32c0-20.18-18.67-30.13-35.14-38.9-15.55-8.28-30.23-16.1-30.23-30.73s14.68-22.45,30.23-30.73c16.47-8.77,35.14-18.71,35.14-38.9s-18.67-30.14-35.14-38.91c-15.55-8.28-30.23-16.1-30.23-30.72s14.68-22.45,30.23-30.73c16.47-8.77,35.14-18.71,35.14-38.9s-18.67-30.14-35.14-38.91c-15.46-8.23-30.06-16-30.22-30.49H76.88c.15,20,18.73,29.93,35.13,38.67,15.55,8.28,30.23,16.1,30.23,30.73S127.56,159.63,112,167.91c-16.47,8.77-35.14,18.72-35.14,38.91S95.54,237,112,245.72c15.55,8.28,30.23,16.1,30.23,30.73S127.56,298.89,112,307.17Z" style="fill:#92E3A9"></path><path d="M151.3,417.53h-8.85a.51.51,0,0,1-.48-.36,5.38,5.38,0,0,1-.23-1.46c0-14.32-14.55-22.07-30-30.28-16.6-8.84-35.41-18.86-35.41-39.35s18.81-30.51,35.4-39.34h0c15.41-8.21,30-16,30-30.28s-14.55-22.08-30-30.29c-16.6-8.84-35.41-18.86-35.41-39.34s18.81-30.51,35.41-39.35c15.41-8.21,30-16,30-30.28s-14.55-22.08-30-30.29c-16.53-8.8-35.25-18.77-35.4-39.1a.54.54,0,0,1,.14-.36.53.53,0,0,1,.36-.15h9.27a.51.51,0,0,1,.5.5C86.8,82,101.28,89.68,116.6,97.84,133.2,106.68,152,116.7,152,137.19s-18.81,30.5-35.41,39.34c-15.41,8.21-30,16-30,30.29s14.55,22.07,30,30.28C133.2,245.94,152,256,152,276.45S133.2,307,116.6,315.79c-15.41,8.21-30,16-30,30.29s14.55,22.08,30,30.29c16.6,8.84,35.41,18.86,35.41,39.34a5.38,5.38,0,0,1-.23,1.46A.51.51,0,0,1,151.3,417.53Zm-8.46-1h8.07a3.46,3.46,0,0,0,.1-.82c0-19.88-18.53-29.75-34.88-38.46C100.45,368.9,85.64,361,85.64,346.08s14.81-22.82,30.49-31.17c16.35-8.7,34.88-18.57,34.88-38.46S132.48,246.69,116.13,238c-15.68-8.35-30.49-16.24-30.49-31.16s14.81-22.82,30.49-31.17c16.35-8.71,34.88-18.57,34.88-38.46s-18.53-29.76-34.88-38.47c-15.42-8.21-30-16-30.47-30.43H77.39c.45,19.4,18.72,29.13,34.86,37.73,15.68,8.35,30.49,16.24,30.49,31.17S127.93,160,112.25,168.35c-16.35,8.71-34.88,18.58-34.88,38.47s18.53,29.75,34.87,38.46c15.69,8.35,30.5,16.24,30.5,31.17s-14.81,22.81-30.49,31.17h0c-16.34,8.7-34.87,18.57-34.87,38.46s18.53,29.76,34.88,38.46c15.68,8.36,30.49,16.25,30.49,31.17A3.46,3.46,0,0,0,142.84,416.53Z" style="fill:#263238"></path></g></svg>